<svg xmlns="http://www.w3.org/2000/svg" xmlns:xlink="http://www.w3.org/1999/xlink" width="270" height="50" viewBox="0 0 270 50">
  <defs>
    <linearGradient id="linear-gradient" x1="0.5" x2="0.5" y2="1" gradientUnits="objectBoundingBox">
      <stop offset="0" stop-color="#7373ec"/>
      <stop offset="1" stop-color="navy"/>
    </linearGradient>
    <clipPath id="clip-path">
      <rect id="Rectangle_8" data-name="Rectangle 8" width="24" height="24" fill="#fff"/>
    </clipPath>
  </defs>
  <g id="Group_11" data-name="Group 11" transform="translate(-368 -30)">
    <g id="Group_10" data-name="Group 10">
      <g id="Group_5" data-name="Group 5" transform="translate(-77 -137)">
        <path id="Path_15" data-name="Path 15" d="M24,0A24,24,0,1,1,0,24,24,24,0,0,1,24,0Z" transform="translate(448 167)" fill="url(#linear-gradient)"/>
        <g id="Group_4" data-name="Group 4" transform="translate(460 179)" clip-path="url(#clip-path)">
          <path id="Path_13" data-name="Path 13" d="M34.571,16.735a.837.837,0,1,0,1.184-1.184l-3.306-3.306a.837.837,0,0,0-1.184,1.184l1.061,1.061-1.7,1.7-3.314-3.314a.837.837,0,0,0-1.184,1.184l.852.852-1.865,1.865,2.3,2.3a.837.837,0,0,1-1.184,1.184l-2.3-2.3-1.295,1.295,2.3,2.3a.837.837,0,0,1-1.184,1.184l-2.3-2.3L19,22.894a.837.837,0,0,0,0,1.184L23.923,29a.837.837,0,0,0,1.184,0l7.985-7.985.852.852a.837.837,0,1,0,1.184-1.184l-3.314-3.314,1.7-1.7Z" transform="translate(-12 -12)" fill="#fff"/>
          <path id="Path_14" data-name="Path 14" d="M17.52,25.99a.837.837,0,0,0,0,1.184l1.061,1.061-6.336,6.336a.837.837,0,0,0,1.184,1.184l6.336-6.336,1.061,1.061a.837.837,0,0,0,1.184,0l.512-.512-4.489-4.489Z" transform="translate(-12 -12)" fill="#fff" opacity="0.7"/>
        </g>
      </g>
      <g id="Group_9" data-name="Group 9" transform="translate(-2 1)">
        <rect id="Rectangle_9" data-name="Rectangle 9" width="270" height="50" transform="translate(370 29)" fill="none"/>
      </g>
      <path id="Path_16" data-name="Path 16" d="M60.275,13.5h4.83V38h-4.83ZM79.16,20.01a6.278,6.278,0,0,1,4.725,1.925,7.267,7.267,0,0,1,1.89,5.32V38H81.26V27.815a3.525,3.525,0,0,0-.945-2.66,3.406,3.406,0,0,0-2.52-.945A3.717,3.717,0,0,0,75,25.3a4.512,4.512,0,0,0-1.05,3.255V38H69.43V20.5h4.515v1.96A5.83,5.83,0,0,1,79.16,20.01Zm23.735-6.51h4.515V38h-4.515V35.935a6.772,6.772,0,0,1-5.67,2.555,8.046,8.046,0,0,1-6.055-2.66,9.352,9.352,0,0,1-2.485-6.58A9.228,9.228,0,0,1,91.17,22.7a8,8,0,0,1,6.055-2.695,6.772,6.772,0,0,1,5.67,2.555Zm-8.33,19.32a4.813,4.813,0,0,0,3.5,1.365,4.694,4.694,0,0,0,3.465-1.365,4.9,4.9,0,0,0,1.365-3.57,4.783,4.783,0,0,0-1.365-3.535,4.632,4.632,0,0,0-3.465-1.4A4.731,4.731,0,0,0,93.2,29.25,4.9,4.9,0,0,0,94.565,32.82ZM113.78,18.4a2.772,2.772,0,0,1-1.96-4.725,2.686,2.686,0,0,1,1.96-.84,2.613,2.613,0,0,1,1.96.84,2.765,2.765,0,0,1-1.96,4.725ZM111.54,38V20.5h4.515V38Zm21.947-17.5H138V38h-4.515V35.935a6.871,6.871,0,0,1-5.705,2.555,8.008,8.008,0,0,1-6.02-2.66,9.35,9.35,0,0,1-2.485-6.58,9.226,9.226,0,0,1,2.485-6.545,7.961,7.961,0,0,1,6.02-2.695,6.871,6.871,0,0,1,5.705,2.555Zm-8.33,12.32a5.08,5.08,0,0,0,6.93,0,4.836,4.836,0,0,0,1.4-3.57,4.72,4.72,0,0,0-1.4-3.535,4.988,4.988,0,0,0-6.93,0,4.783,4.783,0,0,0-1.365,3.535A4.9,4.9,0,0,0,125.157,32.82Z" transform="translate(368.137 28.165)" fill="navy"/>
      <path id="Path_17" data-name="Path 17" d="M149.33,38,141.1,13.5h5.25l5.985,18.83,5.95-18.83h5.285L155.315,38Zm27.611-17.5h4.515V38h-4.515V35.935a6.871,6.871,0,0,1-5.705,2.555,8.008,8.008,0,0,1-6.02-2.66,9.354,9.354,0,0,1-2.485-6.58,9.23,9.23,0,0,1,2.485-6.545,7.961,7.961,0,0,1,6.02-2.695,6.871,6.871,0,0,1,5.705,2.555Zm-8.33,12.32a5.08,5.08,0,0,0,6.93,0,4.833,4.833,0,0,0,1.4-3.57,4.716,4.716,0,0,0-1.4-3.535,4.988,4.988,0,0,0-6.93,0,4.783,4.783,0,0,0-1.365,3.535A4.9,4.9,0,0,0,168.611,32.82Zm25.269,5.67a9.03,9.03,0,0,1-9.24-9.24,9.285,9.285,0,0,1,13.9-8.015,8.143,8.143,0,0,1,3.185,3.29L197.835,26.8a3.93,3.93,0,0,0-1.61-1.715,4.815,4.815,0,0,0-5.74.735,4.645,4.645,0,0,0-1.33,3.43,4.719,4.719,0,0,0,1.33,3.43,4.555,4.555,0,0,0,3.36,1.33,4.813,4.813,0,0,0,2.415-.595,3.93,3.93,0,0,0,1.61-1.715l3.92,2.24a8.9,8.9,0,0,1-3.255,3.325A9.067,9.067,0,0,1,193.88,38.49Zm18.355,0a9.03,9.03,0,0,1-9.24-9.24,9.285,9.285,0,0,1,13.9-8.015,8.143,8.143,0,0,1,3.185,3.29L216.19,26.8a3.936,3.936,0,0,0-1.61-1.715,4.815,4.815,0,0,0-5.74.735,4.641,4.641,0,0,0-1.33,3.43,4.715,4.715,0,0,0,1.33,3.43,4.555,4.555,0,0,0,3.36,1.33,4.813,4.813,0,0,0,2.415-.595,3.936,3.936,0,0,0,1.61-1.715l3.92,2.24a8.9,8.9,0,0,1-3.255,3.325A9.07,9.07,0,0,1,212.235,38.49ZM224.773,18.4a2.772,2.772,0,0,1-1.96-4.725,2.686,2.686,0,0,1,1.96-.84,2.613,2.613,0,0,1,1.96.84,2.765,2.765,0,0,1-1.96,4.725ZM222.533,38V20.5h4.515V38ZM240.91,20.01a6.276,6.276,0,0,1,4.725,1.925,7.267,7.267,0,0,1,1.89,5.32V38H243.01V27.815a3.525,3.525,0,0,0-.945-2.66,3.406,3.406,0,0,0-2.52-.945,3.718,3.718,0,0,0-2.8,1.085,4.512,4.512,0,0,0-1.05,3.255V38H231.18V20.5H235.7v1.96A5.83,5.83,0,0,1,240.91,20.01ZM255.2,31.1q.91,3.29,4.935,3.29a4.616,4.616,0,0,0,3.92-1.75l3.64,2.1a8.68,8.68,0,0,1-7.63,3.745,9.415,9.415,0,0,1-6.965-2.625,8.968,8.968,0,0,1-2.625-6.615,8.991,8.991,0,0,1,2.59-6.58,8.878,8.878,0,0,1,6.65-2.66,8.287,8.287,0,0,1,6.335,2.66,9.2,9.2,0,0,1,2.52,6.58,10.541,10.541,0,0,1-.175,1.855Zm-.07-3.5h8.925a4.2,4.2,0,0,0-1.61-2.66,4.487,4.487,0,0,0-2.73-.875,4.692,4.692,0,0,0-3.01.945A4.356,4.356,0,0,0,255.125,27.6Z" transform="translate(368.435 28.165)" fill="rgba(0,0,128,0.7)"/>
    </g>
  </g>
</svg>
