<svg xmlns="http://www.w3.org/2000/svg" xmlns:xlink="http://www.w3.org/1999/xlink" width="270" height="50" viewBox="0 0 270 50">
  <defs>
    <linearGradient id="linear-gradient" x1="0.5" x2="0.5" y2="1" gradientUnits="objectBoundingBox">
      <stop offset="0" stop-color="#7373ec"/>
      <stop offset="1" stop-color="navy"/>
    </linearGradient>
    <clipPath id="clip-path">
      <rect id="Rectangle_8" data-name="Rectangle 8" width="24" height="24" fill="#fff"/>
    </clipPath>
  </defs>
  <g id="Group_13" data-name="Group 13" transform="translate(-370 -149)">
    <g id="Group_8" data-name="Group 8" transform="translate(0 120)">
      <g id="Group_5" data-name="Group 5" transform="translate(-77 -137)">
        <path id="Path_15" data-name="Path 15" d="M24,0A24,24,0,1,1,0,24,24,24,0,0,1,24,0Z" transform="translate(448 167)" fill="url(#linear-gradient)"/>
        <g id="Group_4" data-name="Group 4" transform="translate(460 179)" clip-path="url(#clip-path)">
          <path id="Path_13" data-name="Path 13" d="M34.571,16.735a.837.837,0,1,0,1.184-1.184l-3.306-3.306a.837.837,0,0,0-1.184,1.184l1.061,1.061-1.7,1.7-3.314-3.314a.837.837,0,0,0-1.184,1.184l.852.852-1.865,1.865,2.3,2.3a.837.837,0,0,1-1.184,1.184l-2.3-2.3-1.295,1.295,2.3,2.3a.837.837,0,0,1-1.184,1.184l-2.3-2.3L19,22.894a.837.837,0,0,0,0,1.184L23.923,29a.837.837,0,0,0,1.184,0l7.985-7.985.852.852a.837.837,0,1,0,1.184-1.184l-3.314-3.314,1.7-1.7Z" transform="translate(-12 -12)" fill="#fff"/>
          <path id="Path_14" data-name="Path 14" d="M17.52,25.99a.837.837,0,0,0,0,1.184l1.061,1.061-6.336,6.336a.837.837,0,0,0,1.184,1.184l6.336-6.336,1.061,1.061a.837.837,0,0,0,1.184,0l.512-.512-4.489-4.489Z" transform="translate(-12 -12)" fill="#fff" opacity="0.7"/>
        </g>
      </g>
      <rect id="Rectangle_9" data-name="Rectangle 9" width="270" height="50" transform="translate(370 29)" fill="none"/>
    </g>
    <path id="Path_26" data-name="Path 26" d="M67.734,22.969v-.25q0-3.359-2.7-3.359a3.355,3.355,0,0,0-2.656,1.063,3.99,3.99,0,0,0-.937,2.766,7.6,7.6,0,0,0,1.016,3.828,14.855,14.855,0,0,0,3.25,3.656L62.8,33.391a20.764,20.764,0,0,1-4.344-5.219,10.725,10.725,0,0,1-1.359-5.156,7.373,7.373,0,0,1,.969-3.766,6.71,6.71,0,0,1,2.75-2.609,8.572,8.572,0,0,1,4-.922,7.181,7.181,0,0,1,5.328,1.844,7.479,7.479,0,0,1,1.875,5.406h4.625v-7.25l4.3.344V29.016a5.1,5.1,0,0,0,.125,1.266,1.416,1.416,0,0,0,.406.7,1.479,1.479,0,0,0,.656.313,9.1,9.1,0,0,0,1.3.063L83.109,35H82.25a7.936,7.936,0,0,1-3.344-.547,3.762,3.762,0,0,1-1.7-1.687,8.04,8.04,0,0,1-.562-3.422V26.578H72.031v.609a2.958,2.958,0,0,1-.531,1.922,2.118,2.118,0,0,1-1.7.625,3.707,3.707,0,0,1-2-.781,7.094,7.094,0,0,1-1.875-1.906,3.8,3.8,0,0,1-.75-2.062,1.916,1.916,0,0,1,.563-1.531,2.556,2.556,0,0,1,1.7-.484Zm18.281-7.25,4.3.344V29.016a5.1,5.1,0,0,0,.125,1.266,1.416,1.416,0,0,0,.406.7,1.479,1.479,0,0,0,.656.313,9.1,9.1,0,0,0,1.3.063L92.484,35h-.859a7.936,7.936,0,0,1-3.344-.547,3.762,3.762,0,0,1-1.7-1.687,8.04,8.04,0,0,1-.562-3.422ZM107.281,35a9.7,9.7,0,0,1-5.265-1.312,15.591,15.591,0,0,1-4.094-4.141l-.312.016a4.559,4.559,0,0,1-2.7-.578,2.26,2.26,0,0,1-1.031-2.031,2.094,2.094,0,0,1,.719-1.687,2.949,2.949,0,0,1,2-.625,4.1,4.1,0,0,1,2.562.953,5.426,5.426,0,0,0,2.344-1.422,3.005,3.005,0,0,0,.859-2.109,2.416,2.416,0,0,0-.875-2,3.892,3.892,0,0,0-2.515-.7,9.407,9.407,0,0,0-3.922.813l-1.2-3.375a14.583,14.583,0,0,1,5.625-1.078,7.877,7.877,0,0,1,5.281,1.687,5.749,5.749,0,0,1,2,4.641,6.651,6.651,0,0,1-1.219,3.891,7.989,7.989,0,0,1-3.422,2.7,11.253,11.253,0,0,0,1.813,1.578,6.525,6.525,0,0,0,1.672.8,6.611,6.611,0,0,0,1.859.234h.7L107.875,35Zm13.907-10.562h-3.3a12.694,12.694,0,0,0-2.453.172,2.575,2.575,0,0,0-1.313.688,1.85,1.85,0,0,0-.5,1.344,4.037,4.037,0,0,0,.875,2.328,18.051,18.051,0,0,0,2.891,2.937l-2.907,2.719a20.825,20.825,0,0,1-3.984-4.453,7.788,7.788,0,0,1-1.219-4.062,5.015,5.015,0,0,1,.766-2.781,4.927,4.927,0,0,1,2.281-1.859,12.3,12.3,0,0,1,4.7-.672h4.157V15.719l4.3.344V29.016a5.119,5.119,0,0,0,.125,1.266,1.419,1.419,0,0,0,.407.7,1.476,1.476,0,0,0,.656.313,9.1,9.1,0,0,0,1.3.063L127.656,35H126.8a7.937,7.937,0,0,1-3.344-.547,3.76,3.76,0,0,1-1.7-1.687,8.041,8.041,0,0,1-.562-3.422Z" transform="translate(374.745 148.641)" fill="navy"/>
    <path id="Path_27" data-name="Path 27" d="M147.344,35a9.7,9.7,0,0,1-5.266-1.312,15.61,15.61,0,0,1-4.094-4.141l-.312.016a4.557,4.557,0,0,1-2.7-.578,2.259,2.259,0,0,1-1.031-2.031,2.094,2.094,0,0,1,.718-1.687,2.949,2.949,0,0,1,2-.625,4.1,4.1,0,0,1,2.563.953,5.422,5.422,0,0,0,2.343-1.422,3.006,3.006,0,0,0,.86-2.109,2.419,2.419,0,0,0-.875-2,3.9,3.9,0,0,0-2.516-.7,9.41,9.41,0,0,0-3.922.813l-1.2-3.375a14.586,14.586,0,0,1,5.625-1.078,7.875,7.875,0,0,1,5.281,1.687,5.746,5.746,0,0,1,2,4.641,6.657,6.657,0,0,1-1.218,3.891,8,8,0,0,1-3.422,2.7,11.208,11.208,0,0,0,1.812,1.578,5.86,5.86,0,0,0,3.532,1.031h.7L147.938,35Zm18.25-8.641A6.03,6.03,0,0,1,162.75,27a6.971,6.971,0,0,1-2.781-.531,7.957,7.957,0,0,1-2.7,2.078,10.977,10.977,0,0,0,1.843,1.641,7.091,7.091,0,0,0,1.672.828,6.81,6.81,0,0,0,1.907.234h.7L163.109,35h-.593a9.7,9.7,0,0,1-5.266-1.312,15.61,15.61,0,0,1-4.094-4.141l-.312.016a4.557,4.557,0,0,1-2.7-.578,2.26,2.26,0,0,1-1.032-2.031,2.094,2.094,0,0,1,.719-1.687,2.949,2.949,0,0,1,2-.625,4.143,4.143,0,0,1,2.531.922,4.621,4.621,0,0,0,2.032-1.406,3.232,3.232,0,0,0,.734-2.094,2.451,2.451,0,0,0-.828-2,3.482,3.482,0,0,0-2.344-.7,8.352,8.352,0,0,0-3.672.813l-1.2-3.375a14.075,14.075,0,0,1,5.516-1.078,7.242,7.242,0,0,1,5.015,1.7,5.859,5.859,0,0,1,1.907,4.625,7.782,7.782,0,0,1-.11,1.2,5.006,5.006,0,0,0,1.36.172,4.172,4.172,0,0,0,2.828-1.031V15.719l4.3.344V29.016a5.071,5.071,0,0,0,.125,1.266,1.41,1.41,0,0,0,.406.7,1.476,1.476,0,0,0,.656.313,9.1,9.1,0,0,0,1.3.063L172.062,35H171.2a7.937,7.937,0,0,1-3.344-.547,3.764,3.764,0,0,1-1.7-1.687,8.041,8.041,0,0,1-.562-3.422Zm4.015-11.875h-4.234a15.211,15.211,0,0,1-.3-2.891,5.053,5.053,0,0,1,1.5-3.875A5.931,5.931,0,0,1,170.8,6.313a7.013,7.013,0,0,1,5.328,2.234,14.208,14.208,0,0,1,3.125,6.688V29.016a5.12,5.12,0,0,0,.125,1.266,1.418,1.418,0,0,0,.406.7,1.485,1.485,0,0,0,.657.313,9.1,9.1,0,0,0,1.3.063L181.422,35h-.86a7.932,7.932,0,0,1-3.343-.547,3.681,3.681,0,0,1-1.688-1.687,7.964,7.964,0,0,1-.578-3.437V15.563a13.85,13.85,0,0,0-1.75-4.484,2.547,2.547,0,0,0-2.078-1.172,1.514,1.514,0,0,0-1.281.625,2.705,2.705,0,0,0-.469,1.688A13.59,13.59,0,0,0,169.609,14.484Z" transform="translate(376.07 149.688)" fill="rgba(0,0,128,0.7)"/>
  </g>
</svg>
