<svg xmlns="http://www.w3.org/2000/svg" xmlns:xlink="http://www.w3.org/1999/xlink" width="270" height="50" viewBox="0 0 270 50">
  <defs>
    <linearGradient id="linear-gradient" x1="0.5" x2="0.5" y2="1" gradientUnits="objectBoundingBox">
      <stop offset="0" stop-color="#7373ec"/>
      <stop offset="1" stop-color="navy"/>
    </linearGradient>
    <clipPath id="clip-path">
      <rect id="Rectangle_8" data-name="Rectangle 8" width="24" height="24" fill="#fff"/>
    </clipPath>
  </defs>
  <g id="Group_16" data-name="Group 16" transform="translate(-370 -89)">
    <g id="Group_12" data-name="Group 12">
      <g id="Group_15" data-name="Group 15">
        <rect id="Rectangle_9" data-name="Rectangle 9" width="270" height="50" transform="translate(370 89)" fill="none"/>
      </g>
    </g>
    <g id="Group_5" data-name="Group 5" transform="translate(-77 -77)">
      <path id="Path_15" data-name="Path 15" d="M24,0A24,24,0,1,1,0,24,24,24,0,0,1,24,0Z" transform="translate(448 167)" fill="url(#linear-gradient)"/>
      <g id="Group_4" data-name="Group 4" transform="translate(460 179)" clip-path="url(#clip-path)">
        <path id="Path_13" data-name="Path 13" d="M34.571,16.735a.837.837,0,1,0,1.184-1.184l-3.306-3.306a.837.837,0,0,0-1.184,1.184l1.061,1.061-1.7,1.7-3.314-3.314a.837.837,0,0,0-1.184,1.184l.852.852-1.865,1.865,2.3,2.3a.837.837,0,0,1-1.184,1.184l-2.3-2.3-1.295,1.295,2.3,2.3a.837.837,0,0,1-1.184,1.184l-2.3-2.3L19,22.894a.837.837,0,0,0,0,1.184L23.923,29a.837.837,0,0,0,1.184,0l7.985-7.985.852.852a.837.837,0,1,0,1.184-1.184l-3.314-3.314,1.7-1.7Z" transform="translate(-12 -12)" fill="#fff"/>
        <path id="Path_14" data-name="Path 14" d="M17.52,25.99a.837.837,0,0,0,0,1.184l1.061,1.061-6.336,6.336a.837.837,0,0,0,1.184,1.184l6.336-6.336,1.061,1.061a.837.837,0,0,0,1.184,0l.512-.512-4.489-4.489Z" transform="translate(-12 -12)" fill="#fff" opacity="0.7"/>
      </g>
    </g>
    <path id="Path_20" data-name="Path 20" d="M69.152,21.632a4.2,4.2,0,0,0-2.016.448,1.584,1.584,0,0,0-.8,1.5,1.653,1.653,0,0,0,.672,1.44,3.415,3.415,0,0,0,1.856.448h1.408a7.907,7.907,0,0,1,4.7,1.344A4.849,4.849,0,0,1,76.864,31.1a5.349,5.349,0,0,1-1.5,3.9,5.512,5.512,0,0,1-4.128,1.5,5.414,5.414,0,0,1-4.576-2.144v4.224h-3.9V30.4h3.712a3.281,3.281,0,0,0,1.056,2.24,3.82,3.82,0,0,0,2.528.8,3.076,3.076,0,0,0,2.144-.672,2.288,2.288,0,0,0,.768-1.76A2.169,2.169,0,0,0,72,29.024a4.421,4.421,0,0,0-2.5-.64H67.616a6.676,6.676,0,0,1-3.84-1.28,4.168,4.168,0,0,1-1.568-3.552,4.209,4.209,0,0,1,1.664-3.68,6.918,6.918,0,0,1,4.192-1.216h2.912v-2.88H59.136V12.32H79.392v3.456H74.944v5.856Zm2.477-14.4a2.457,2.457,0,0,1-.7,1.76,2.5,2.5,0,0,1-1.792.7,2.458,2.458,0,0,1-2.5-2.464,2.335,2.335,0,0,1,.736-1.76,2.335,2.335,0,0,1,1.76-.736,2.439,2.439,0,0,1,1.792.736A2.388,2.388,0,0,1,71.629,7.232Zm20.6-3.808A13.173,13.173,0,0,1,97.8,4.544a8.59,8.59,0,0,1,5.216,8.16v.544H98.979v-.48a5.364,5.364,0,0,0-.992-3.328,5.7,5.7,0,0,0-2.5-1.984,8.4,8.4,0,0,0-3.264-.64A8.034,8.034,0,0,0,87.555,8.16a4.865,4.865,0,0,0-2.048,4.16h3.584v3.456H85.539V36H81.411V15.776H77.859V12.32h3.552a8.756,8.756,0,0,1,1.472-4.8,8.687,8.687,0,0,1,3.808-3.04A13.632,13.632,0,0,1,92.227,3.424Zm5.427,18.208a4.013,4.013,0,0,0-1.984.448,1.514,1.514,0,0,0-.8,1.472,1.659,1.659,0,0,0,.7,1.472,3.282,3.282,0,0,0,1.792.448h1.44a7.792,7.792,0,0,1,4.64,1.344,4.714,4.714,0,0,1,1.92,4.192,4.992,4.992,0,0,1-1.824,4.064,7.944,7.944,0,0,1-5.184,1.5,9.452,9.452,0,0,1-5.76-1.632A5.725,5.725,0,0,1,90.262,30.4H94.39a2.825,2.825,0,0,0,1.056,2.24,4.493,4.493,0,0,0,2.784.8,3.681,3.681,0,0,0,2.368-.672,2.379,2.379,0,0,0-.1-3.744,4.262,4.262,0,0,0-2.464-.64H96.854A8.213,8.213,0,0,1,92.566,27.3a4.176,4.176,0,0,1-1.824-3.872,4.018,4.018,0,0,1,1.632-3.52,7.053,7.053,0,0,1,4.192-1.184h2.816V15.776H87.734V12.32h19.52v3.456h-3.9v5.856Zm33.611-5.856h-3.552V36h-4.128V30.272a6.762,6.762,0,0,1-2.624,2.016,9.186,9.186,0,0,1-3.808.736,8.287,8.287,0,0,1-6.368-2.432A9.354,9.354,0,0,1,108.545,24q0-.576.128-1.792h.384a5.42,5.42,0,0,0,3.872-1.152,4.681,4.681,0,0,0,1.216-3.552V15.776h-8.192V12.32h25.312Zm-7.68,0h-5.344V18.24a6.4,6.4,0,0,1-1.408,4.384,5.952,5.952,0,0,1-4.192,1.792,5.059,5.059,0,0,0,1.408,3.744,6.174,6.174,0,0,0,8-.128,5.329,5.329,0,0,0,1.536-3.936ZM133.474,36V15.776h-3.552V12.32h11.232v3.456H137.6V36Z" transform="translate(363.846 92.576)" fill="navy"/>
    <path id="Path_21" data-name="Path 21" d="M167.08,12.32v3.456h-3.52V36h-4.032V30.944a5.7,5.7,0,0,1-2.24,1.952,6.859,6.859,0,0,1-3.168.7,7.544,7.544,0,0,1-3.84-.96,6.756,6.756,0,0,1-2.528-2.72,8.757,8.757,0,0,1-.864-3.968,8.1,8.1,0,0,1,.9-3.84,6.376,6.376,0,0,1,2.528-2.624,7.481,7.481,0,0,1,3.808-.96,6.933,6.933,0,0,1,3.2.7,5.756,5.756,0,0,1,2.208,1.952V15.776h-15.2V12.32ZM155.208,30.3a4.28,4.28,0,0,0,2.336-.608,3.842,3.842,0,0,0,1.472-1.568,4.23,4.23,0,0,0,.512-2.016V26.08a4.237,4.237,0,0,0-1.152-2.976,4.037,4.037,0,0,0-3.168-1.248,4.29,4.29,0,0,0-3.072,1.152,4.05,4.05,0,0,0-1.184,3.04,4.2,4.2,0,0,0,1.184,3.1A4.29,4.29,0,0,0,155.208,30.3Zm-2.5-28.224a10.306,10.306,0,0,1,3.9.576,7.406,7.406,0,0,1,2.816,2.624,64.991,64.991,0,0,1,4.064,7.136h-3.52q-2.016-1.376-2.88-1.856a5.092,5.092,0,0,0-1.7-.608,19.787,19.787,0,0,0-2.688-.128h-1.6V7.232h1.5a19.9,19.9,0,0,1,2.656.128,5.235,5.235,0,0,1,1.761.544,12.908,12.908,0,0,1,2.175,1.44A14.825,14.825,0,0,0,157,6.176a4.312,4.312,0,0,0-1.856-1.216,8.882,8.882,0,0,0-2.368-.256h-1.664V2.08Zm63.425,13.7H212.55V36h-4.1V25.792H195.4V29.5a3.849,3.849,0,0,0,.672,2.368,2.359,2.359,0,0,0,2.016.9,2.42,2.42,0,0,0,1.952-.832,3.206,3.206,0,0,0,.7-2.144v-.416h3.968a5.053,5.053,0,0,1,.032.608,6.1,6.1,0,0,1-1.76,4.608,6.673,6.673,0,0,1-4.832,1.7,6.576,6.576,0,0,1-5.056-1.92,7.182,7.182,0,0,1-1.792-5.056V25.28a3.411,3.411,0,0,0-1.12-2.208,3.338,3.338,0,0,0-2.368-.864,3.122,3.122,0,0,0-2.688,1.216,4.861,4.861,0,0,0-.864,2.944V36h-3.968V30.816a5.259,5.259,0,0,1-2.08,2.016,6.813,6.813,0,0,1-3.2.7,6.565,6.565,0,0,1-3.52-.928,6.213,6.213,0,0,1-2.336-2.624,8.752,8.752,0,0,1-.832-3.9,8.548,8.548,0,0,1,.832-3.872,6.359,6.359,0,0,1,2.4-2.624,6.962,6.962,0,0,1,3.616-.928,6.29,6.29,0,0,1,3.072.7,5.289,5.289,0,0,1,2.048,1.888V15.776H165.765V12.32h50.369Zm-21.6,7.04a4.511,4.511,0,0,0,3.232-1.344,4.8,4.8,0,0,0,1.056-3.264V15.776h-14.56V21.5a4.634,4.634,0,0,1,1.888-1.792,6.12,6.12,0,0,1,2.944-.672,5.523,5.523,0,0,1,3.392,1.024A5.812,5.812,0,0,1,194.534,22.816Zm13.92-7.04h-5.536v2.432a7.811,7.811,0,0,1-1.12,4.224h6.656ZM176.39,30.08a3.754,3.754,0,0,0,3.456-2.048,4.376,4.376,0,0,0,.448-1.92,4.005,4.005,0,0,0-1.024-2.752,3.508,3.508,0,0,0-2.848-1.184,3.836,3.836,0,0,0-2.784,1.088,3.791,3.791,0,0,0-1.12,2.848,3.89,3.89,0,0,0,1.088,2.88A3.769,3.769,0,0,0,176.39,30.08Zm49.639-17.76v3.456h-3.552V36h-4.128V15.776H214.8V12.32h3.68V11.04a6.066,6.066,0,0,0-.64-2.912A2.4,2.4,0,0,0,215.5,6.912a2.43,2.43,0,0,0-2.368,1.216,5.821,5.821,0,0,0-.672,2.912v2.208h-4V11.264a8.892,8.892,0,0,1,1.7-5.728q1.664-2.112,5.344-2.112,6.975,0,6.976,7.84V12.32Zm25.907,3.456h-3.552V36h-4.128V23.488h-4.832a6.08,6.08,0,0,1,1.12,3.68,6.01,6.01,0,0,1-.864,3.264,5.476,5.476,0,0,1-2.368,2.08,8.035,8.035,0,0,1-6.784-.1,6.247,6.247,0,0,1-2.5-2.272,6.564,6.564,0,0,1-.928-3.52,6.42,6.42,0,0,1,.96-3.584,5.878,5.878,0,0,1,2.592-2.24,8.751,8.751,0,0,1,3.712-.768h9.888V15.776H224.672V12.32h27.264ZM234.08,29.728a3.142,3.142,0,0,0,2.272-.864,3.08,3.08,0,0,0,.9-2.272,2.935,2.935,0,0,0-.9-2.208,3.08,3.08,0,0,0-2.272-.9,3.268,3.268,0,0,0-2.368.9,3.248,3.248,0,0,0,0,4.48A3.337,3.337,0,0,0,234.08,29.728Z" transform="translate(365.648 92.92)" fill="rgba(0,0,128,0.7)"/>
  </g>
</svg>
