<svg width="178" height="213" viewBox="0 0 178 213" fill="none" xmlns="http://www.w3.org/2000/svg">
<circle cx="89" cy="89" r="75" fill="#BCC6E9"/>
<circle cx="89" cy="89" r="88" stroke="#46B983" stroke-width="2" stroke-dasharray="3 3"/>
<path d="M134.171 161.081C131.829 125.576 119.841 104.52 87.6774 104.52C42.8437 104.52 41.5059 160.935 41.5059 160.935C63.5363 168.301 108.105 172.815 134.171 161.081Z" fill="#83D4AE"/>
<path d="M135.506 161.081C134.198 143.606 131.069 124.605 117.256 112.441C104.904 101.562 84.167 100.694 69.5647 106.825C49.5241 115.239 40.7517 140.72 40.1695 160.935C40.1505 161.546 40.5929 162.046 41.1497 162.224C69.95 171.454 106.511 174.208 134.845 162.234C136.427 161.566 135.063 159.262 133.495 159.925C108.882 170.327 78.8536 168.191 53.2837 162.753C46.6387 161.339 42.5108 163.047 43.1798 156.451C43.8191 150.153 45.2628 143.953 47.2272 137.943C54.1558 116.747 70.676 104.71 93.1447 106.073C122.781 107.873 130.959 136.051 132.834 161.081C132.961 162.787 135.635 162.8 135.506 161.081Z" fill="#545CB4"/>
<path d="M96.6992 93.6875C97.1861 104.52 100.628 116.465 87.5288 116.254C75.6297 116.059 78.1997 105.119 79.0147 93.6875" fill="white"/>
<path d="M95.3636 93.6873C95.7468 100.9 99.337 114.007 88.7843 114.899C76.4386 115.94 79.76 101.433 80.3507 93.6873C80.4819 91.9662 77.8083 91.9789 77.677 93.6873C77.2388 99.4304 76.0195 105.591 77.6368 111.245C79.0826 116.302 84.0933 117.642 88.7843 117.572C101.746 117.375 98.486 102.176 98.0373 93.6873C97.9462 91.9726 95.2705 91.9641 95.3636 93.6873Z" fill="#545CB4"/>
<path d="M92.4732 47.4611C109.358 48.7482 116.127 58.4541 116.119 73.8905C116.104 91.7761 105.386 100.191 85.297 100.191C63.8825 100.191 55.4446 81.2341 61.4354 63.8417C66.0015 50.3253 80.7499 46.1804 92.4732 47.4611Z" fill="white"/>
<path d="M92.4741 48.7967C108.552 50.5537 115.188 61.0026 114.699 76.5025C114.221 91.742 101.761 97.8725 88.2403 98.7912C72.2789 99.8751 61.0277 89.6928 60.9091 73.8077C60.7779 56.0152 76.5699 47.5773 92.4741 48.7967C94.193 48.93 94.1803 46.2542 92.4741 46.1251C75.9433 44.8571 59.6877 53.2274 58.4112 71.331C57.1898 88.6577 67.988 100.79 85.2978 101.528C100.046 102.157 115.548 95.1503 117.132 78.973C118.903 60.8651 111.048 48.1531 92.4741 46.1251C90.7615 45.9367 90.7784 48.6125 92.4741 48.7967Z" fill="#545CB4"/>
<path d="M5.61621 202.268C7.90019 167.646 19.5928 147.101 50.9643 147.101C94.6913 147.101 95.9964 202.128 95.9964 202.128C74.5102 209.314 31.0382 213.713 5.61621 202.268Z" fill="#EE6161"/>
<path d="M7.22515 202.268C9.12677 177.539 16.4808 152.655 44.5411 149.022C67.5058 146.05 83.5369 160.249 90.4908 180.899C92.3517 186.43 93.4504 192.26 94.0902 198.051C94.7529 204.083 90.6897 202.133 84.7019 203.545C59.8152 209.403 29.9986 210.697 6.0449 200.715C4.12799 199.917 3.29957 203.032 5.18844 203.82C32.8867 215.362 68.3088 212.607 96.4251 203.68C97.0955 203.466 97.6283 202.862 97.6079 202.127C97.0012 182.023 88.0947 156.277 67.6562 148.597C53.9396 143.445 35.1503 143.996 23.2767 153.529C8.61694 165.298 5.37194 184.521 4.00563 202.268C3.84759 204.337 7.06711 204.322 7.22515 202.268Z" fill="#545CB4"/>
<path d="M42.1649 136.54C41.6908 147.1 38.3311 158.757 51.107 158.543C62.7156 158.355 60.2047 147.692 59.4145 136.54" fill="white"/>
<path d="M40.5545 136.54C40.0651 145.775 37.0546 159.058 49.8841 160.137C64.1717 161.337 61.7349 145.902 61.0237 136.54C60.8656 134.483 57.6461 134.467 57.8041 136.54C58.1151 140.639 58.6377 144.732 58.574 148.852C58.4822 154.549 55.4947 156.999 49.8841 156.917C39.8637 156.772 43.4426 142.815 43.774 136.54C43.8836 134.465 40.6641 134.475 40.5545 136.54Z" fill="#545CB4"/>
<path d="M46.2867 91.4515C29.8171 92.7057 23.2125 102.17 23.2227 117.228C23.2354 134.671 33.6892 142.882 53.2865 142.882C74.1711 142.882 82.4021 124.386 76.5596 107.429C72.1038 94.2377 57.7194 90.2025 46.2867 91.4515Z" fill="white"/>
<path d="M46.2875 89.8429C28.9053 91.7751 21.1357 102.785 21.7016 119.904C22.2471 136.333 35.515 143.363 50.2691 144.424C67.2868 145.645 79.5708 134.539 79.9965 117.628C80.4809 98.3951 63.6544 88.5505 46.2875 89.8429C44.2304 89.9959 44.2151 93.2153 46.2875 93.0624C60.7229 91.9867 73.0528 97.9719 76.3386 112.971C79.7696 128.632 68.4033 140.595 53.2873 141.273C40.8579 141.829 28.9996 137.082 25.5558 124.378C21.2173 108.362 30.0881 94.862 46.2875 93.0624C48.3268 92.8355 48.3471 89.6135 46.2875 89.8429Z" fill="#545CB4"/>
<path d="M172.622 203.223C170.281 167.718 158.293 146.662 126.129 146.662C81.2949 146.662 79.957 203.077 79.957 203.077C101.988 210.444 146.557 214.957 172.622 203.223Z" fill="#94A6DC"/>
<path d="M173.957 203.223C172.649 185.748 169.52 166.747 155.707 154.583C143.355 143.704 122.618 142.837 108.016 148.967C87.9752 157.382 79.2029 182.863 78.6207 203.077C78.6017 203.689 79.0441 204.188 79.6008 204.366C108.401 213.596 144.962 216.35 173.297 204.377C174.878 203.708 173.515 201.405 171.946 202.067C147.333 212.47 117.305 210.334 91.7348 204.895C85.0899 203.481 80.962 205.19 81.6309 198.593C82.2702 192.296 83.7139 186.095 85.6784 180.085C92.607 158.889 109.127 146.852 131.596 148.216C161.232 150.015 169.41 178.193 171.285 203.223C171.412 204.929 174.086 204.942 173.957 203.223Z" fill="#545CB4"/>
<path d="M135.15 135.83C135.637 146.662 139.079 158.607 125.98 158.396C114.081 158.201 116.651 147.261 117.466 135.83" fill="white"/>
<path d="M133.815 135.829C134.198 143.042 137.788 156.15 127.236 157.041C114.89 158.082 118.211 143.575 118.802 135.829C118.933 134.108 116.259 134.121 116.128 135.829C115.69 141.573 114.471 147.733 116.088 153.387C117.534 158.444 122.544 159.784 127.236 159.714C140.197 159.517 136.937 144.318 136.488 135.829C136.397 134.115 133.722 134.106 133.815 135.829Z" fill="#545CB4"/>
<path d="M130.924 89.6033C147.809 90.8904 154.579 100.596 154.57 116.033C154.555 133.918 143.837 142.333 123.748 142.333C102.334 142.333 93.8957 123.376 99.8865 105.984C104.453 92.4676 119.201 88.3226 130.924 89.6033Z" fill="white"/>
<path d="M130.925 90.9389C147.003 92.6959 153.639 103.145 153.15 118.645C152.672 133.884 140.212 140.015 126.691 140.933C110.73 142.017 99.4788 131.835 99.3603 115.95C99.2291 98.1574 115.021 89.7195 130.925 90.9389C132.644 91.0722 132.631 88.3965 130.925 88.2673C114.394 86.9993 98.1389 95.3696 96.8624 113.473C95.6409 130.8 106.439 142.932 123.749 143.671C138.497 144.299 153.999 137.292 155.583 121.115C157.355 103.007 149.499 90.2953 130.925 88.2673C129.213 88.0789 129.23 90.7547 130.925 90.9389Z" fill="#545CB4"/>
</svg>
