<svg width="332" height="402" viewBox="0 0 332 402" fill="none" xmlns="http://www.w3.org/2000/svg">
<path d="M200.148 84.6538C198.426 58.5366 189.607 43.0472 165.947 43.0472C132.968 43.0472 131.983 84.5464 131.983 84.5464C148.189 89.9654 180.974 93.2853 200.148 84.6538Z" fill="#83D4AE"/>
<path d="M201.13 84.6538C200.168 71.7992 197.866 57.8219 187.706 48.8742C178.619 40.8718 163.365 40.2334 152.624 44.743C137.882 50.9329 131.429 69.6768 131 84.5464C130.986 84.9964 131.312 85.364 131.721 85.4948C152.907 92.2841 179.801 94.31 200.644 85.5025C201.808 85.0105 200.805 83.3162 199.651 83.8036C181.545 91.4557 159.457 89.8845 140.647 85.8841C135.759 84.8439 132.723 86.1005 133.215 81.2483C133.685 76.6157 134.747 72.0546 136.192 67.6338C141.289 52.0416 153.441 43.1874 169.969 44.1903C191.77 45.5139 197.785 66.2416 199.165 84.6538C199.258 85.9089 201.225 85.9183 201.13 84.6538Z" fill="#545CB4"/>
<path d="M172.584 35.0791C172.942 43.0472 175.474 51.8345 165.838 51.6787C157.085 51.5355 158.976 43.4879 159.575 35.0791" fill="white"/>
<path d="M171.601 35.079C171.883 40.3844 174.524 50.0265 166.762 50.6821C157.68 51.4482 160.123 40.7768 160.558 35.079C160.654 33.813 158.687 33.8223 158.591 35.079C158.269 39.3037 157.372 43.8351 158.561 47.9943C159.625 51.7145 163.311 52.7002 166.762 52.6488C176.296 52.504 173.898 41.3233 173.568 35.079C173.501 33.8177 171.533 33.8114 171.601 35.079Z" fill="#545CB4"/>
<path d="M169.475 1.07471C181.895 2.02148 186.875 9.16122 186.869 20.5163C186.858 33.673 178.974 39.8629 164.196 39.8629C148.444 39.8629 142.237 25.9182 146.644 13.1243C150.003 3.18165 160.852 0.132605 169.475 1.07471Z" fill="white"/>
<path d="M169.475 2.05722C181.302 3.34969 186.184 11.036 185.824 22.4377C185.472 33.648 176.307 38.1576 166.361 38.8334C154.62 39.6307 146.343 32.1406 146.256 20.4554C146.16 7.36723 157.776 1.16027 169.475 2.05722C170.74 2.15532 170.73 0.18701 169.475 0.0920206C157.315 -0.840738 145.358 5.31645 144.419 18.6336C143.52 31.3792 151.463 40.3034 164.197 40.8469C175.045 41.3094 186.449 36.1551 187.614 24.255C188.917 10.9348 183.138 1.58381 169.475 0.0920206C168.216 -0.0465712 168.228 1.92174 169.475 2.05722Z" fill="#545CB4"/>
<path d="M6.72101 185.168C8.55501 185.168 10.165 184.202 10.963 182.746L10.095 182.256C9.49301 183.432 8.19101 184.216 6.72101 184.216C4.24301 184.216 2.56301 182.382 2.56301 180.1C2.56301 177.818 4.24301 175.984 6.72101 175.984C8.19101 175.984 9.49301 176.768 10.095 177.944L10.963 177.44C10.151 175.984 8.54101 175.032 6.72101 175.032C3.71101 175.032 1.58301 177.3 1.58301 180.1C1.58301 182.9 3.71101 185.168 6.72101 185.168Z" fill="#35369B"/>
<path d="M15.6283 185.168C17.6723 185.168 19.3103 183.572 19.3103 181.5C19.3103 179.428 17.6723 177.832 15.6283 177.832C13.5843 177.832 11.9463 179.428 11.9463 181.5C11.9463 183.572 13.5843 185.168 15.6283 185.168ZM15.6283 184.272C14.0743 184.272 12.8703 183.054 12.8703 181.5C12.8703 179.946 14.0743 178.728 15.6283 178.728C17.1823 178.728 18.3863 179.946 18.3863 181.5C18.3863 183.054 17.1823 184.272 15.6283 184.272Z" fill="#35369B"/>
<path d="M24.1325 177.832C23.1385 177.832 22.3265 178.21 21.7805 179.092V178H20.8565V185H21.7805V181.332C21.7805 179.456 22.8165 178.728 24.0485 178.728C25.2665 178.728 25.9525 179.456 25.9525 180.702V185H26.8765V180.702C26.8765 178.952 25.8405 177.832 24.1325 177.832Z" fill="#35369B"/>
<path d="M32.3732 178.896V178H30.3572V176.04L29.4332 176.32V178H27.9632V178.896H29.4332V183.138C29.4332 184.818 30.4832 185.28 32.3732 185V184.188C31.0152 184.244 30.3572 184.342 30.3572 183.138V178.896H32.3732Z" fill="#35369B"/>
<path d="M39.5093 178V179.372C38.9213 178.434 37.9273 177.832 36.6813 177.832C34.7073 177.832 33.0693 179.428 33.0693 181.5C33.0693 183.572 34.7073 185.168 36.6813 185.168C37.9273 185.168 38.9213 184.566 39.5093 183.628V185H40.4333V178H39.5093ZM36.7513 184.272C35.1973 184.272 33.9933 183.054 33.9933 181.5C33.9933 179.946 35.1973 178.728 36.7513 178.728C38.3053 178.728 39.5093 179.946 39.5093 181.5C39.5093 183.054 38.3053 184.272 36.7513 184.272Z" fill="#35369B"/>
<path d="M45.6517 185.168C47.0237 185.168 48.2137 184.454 48.7877 183.348L48.0177 182.9C47.5697 183.712 46.7157 184.272 45.6517 184.272C44.0977 184.272 42.8937 183.054 42.8937 181.5C42.8937 179.946 44.0977 178.728 45.6517 178.728C46.7017 178.728 47.5837 179.274 47.9617 180.1L48.7177 179.666C48.2137 178.56 47.0377 177.832 45.6517 177.832C43.5377 177.832 41.9697 179.428 41.9697 181.5C41.9697 183.572 43.5377 185.168 45.6517 185.168Z" fill="#35369B"/>
<path d="M53.8243 178.896V178H51.8083V176.04L50.8843 176.32V178H49.4143V178.896H50.8843V183.138C50.8843 184.818 51.9343 185.28 53.8243 185V184.188C52.4663 184.244 51.8083 184.342 51.8083 183.138V178.896H53.8243Z" fill="#35369B"/>
<path d="M55.8263 176.516C56.2043 176.516 56.4983 176.208 56.4983 175.844C56.4983 175.48 56.2043 175.172 55.8263 175.172C55.4483 175.172 55.1543 175.48 55.1543 175.844C55.1543 176.208 55.4483 176.516 55.8263 176.516ZM55.3643 185H56.2883V178H55.3643V185Z" fill="#35369B"/>
<path d="M61.5251 177.832C60.5311 177.832 59.7191 178.21 59.1731 179.092V178H58.2491V185H59.1731V181.332C59.1731 179.456 60.2091 178.728 61.4411 178.728C62.6591 178.728 63.3451 179.456 63.3451 180.702V185H64.2691V180.702C64.2691 178.952 63.2331 177.832 61.5251 177.832Z" fill="#35369B"/>
<path d="M72.0757 178V179.372C71.4877 178.434 70.4937 177.832 69.2477 177.832C67.2737 177.832 65.6357 179.428 65.6357 181.5C65.6357 183.572 67.2737 185.168 69.2477 185.168C70.4937 185.168 71.4877 184.566 72.0757 183.628V184.72C72.0757 186.148 71.1097 187.072 69.4857 187.072C67.9737 187.072 67.3297 186.512 66.9797 185.798L66.1677 186.26C66.7137 187.352 67.8757 187.968 69.4857 187.968C71.2917 187.968 72.9997 186.848 72.9997 184.72V178H72.0757ZM69.3177 184.272C67.7637 184.272 66.5597 183.054 66.5597 181.5C66.5597 179.946 67.7637 178.728 69.3177 178.728C70.8717 178.728 72.0757 179.946 72.0757 181.5C72.0757 183.054 70.8717 184.272 69.3177 184.272Z" fill="#35369B"/>
<path d="M21.3226 199.168C23.1566 199.168 24.7666 198.202 25.5646 196.746L24.6966 196.256C24.0946 197.432 22.7926 198.216 21.3226 198.216C18.8446 198.216 17.1646 196.382 17.1646 194.1C17.1646 191.818 18.8446 189.984 21.3226 189.984C22.7926 189.984 24.0946 190.768 24.6966 191.944L25.5646 191.44C24.7526 189.984 23.1426 189.032 21.3226 189.032C18.3126 189.032 16.1846 191.3 16.1846 194.1C16.1846 196.9 18.3126 199.168 21.3226 199.168Z" fill="#35369B"/>
<path d="M30.2019 191.832C28.0319 191.832 26.5479 193.442 26.5479 195.5C26.5479 197.614 28.0599 199.168 30.2719 199.168C31.6859 199.168 32.7639 198.51 33.3519 197.558L32.5399 197.082C32.1619 197.754 31.3919 198.272 30.2859 198.272C28.8019 198.272 27.6959 197.39 27.4999 195.962H33.6459C33.6599 195.822 33.6739 195.668 33.6739 195.528C33.6739 193.61 32.3439 191.832 30.2019 191.832ZM30.2019 192.728C31.4059 192.728 32.5259 193.526 32.7219 195.066H27.4999C27.6819 193.694 28.7319 192.728 30.2019 192.728Z" fill="#35369B"/>
<path d="M38.4196 191.832C37.4256 191.832 36.6136 192.21 36.0676 193.092V192H35.1436V199H36.0676V195.332C36.0676 193.456 37.1036 192.728 38.3356 192.728C39.5536 192.728 40.2396 193.456 40.2396 194.702V199H41.1636V194.702C41.1636 192.952 40.1276 191.832 38.4196 191.832Z" fill="#35369B"/>
<path d="M46.6603 192.896V192H44.6443V190.04L43.7203 190.32V192H42.2503V192.896H43.7203V197.138C43.7203 198.818 44.7703 199.28 46.6603 199V198.188C45.3023 198.244 44.6443 198.342 44.6443 197.138V192.896H46.6603Z" fill="#35369B"/>
<path d="M51.0104 191.832C48.8404 191.832 47.3564 193.442 47.3564 195.5C47.3564 197.614 48.8684 199.168 51.0804 199.168C52.4944 199.168 53.5724 198.51 54.1604 197.558L53.3484 197.082C52.9704 197.754 52.2004 198.272 51.0944 198.272C49.6104 198.272 48.5044 197.39 48.3084 195.962H54.4544C54.4684 195.822 54.4824 195.668 54.4824 195.528C54.4824 193.61 53.1524 191.832 51.0104 191.832ZM51.0104 192.728C52.2144 192.728 53.3344 193.526 53.5304 195.066H48.3084C48.4904 193.694 49.5404 192.728 51.0104 192.728Z" fill="#35369B"/>
<path d="M56.8762 193.162V192H55.9522V199H56.8762V195.108C56.8762 193.372 57.9682 192.784 59.0882 192.784V191.888C58.1922 191.888 57.3662 192.182 56.8762 193.162Z" fill="#35369B"/>
<path d="M281.935 186H282.943L286.555 176.2H285.491L282.439 184.698L279.387 176.2H278.323L281.935 186Z" fill="#35369B"/>
<path d="M290.081 178.832C287.911 178.832 286.427 180.442 286.427 182.5C286.427 184.614 287.939 186.168 290.151 186.168C291.565 186.168 292.643 185.51 293.231 184.558L292.419 184.082C292.041 184.754 291.271 185.272 290.165 185.272C288.681 185.272 287.575 184.39 287.379 182.962H293.525C293.539 182.822 293.553 182.668 293.553 182.528C293.553 180.61 292.223 178.832 290.081 178.832ZM290.081 179.728C291.285 179.728 292.405 180.526 292.601 182.066H287.379C287.561 180.694 288.611 179.728 290.081 179.728Z" fill="#35369B"/>
<path d="M295.947 180.162V179H295.023V186H295.947V182.108C295.947 180.372 297.039 179.784 298.159 179.784V178.888C297.263 178.888 296.437 179.182 295.947 180.162Z" fill="#35369B"/>
<path d="M299.887 177.516C300.265 177.516 300.559 177.208 300.559 176.844C300.559 176.48 300.265 176.172 299.887 176.172C299.509 176.172 299.215 176.48 299.215 176.844C299.215 177.208 299.509 177.516 299.887 177.516ZM299.425 186H300.349V179H299.425V186Z" fill="#35369B"/>
<path d="M305.81 176.928V176.032C303.92 175.892 302.87 176.9 302.87 178.72V179H301.68V179.896H302.87V186H303.794V179.896H305.81V179H303.794V178.72C303.794 177.376 304.452 176.816 305.81 176.928Z" fill="#35369B"/>
<path d="M312.108 179L309.84 184.866L307.208 179H306.228L309.364 186.042L309.182 186.476C308.804 187.386 308.174 188.03 307.264 187.932V188.8C308.524 188.898 309.56 187.988 310.092 186.644L313.088 179H312.108Z" fill="#35369B"/>
<path d="M314.666 177.516C315.044 177.516 315.338 177.208 315.338 176.844C315.338 176.48 315.044 176.172 314.666 176.172C314.288 176.172 313.994 176.48 313.994 176.844C313.994 177.208 314.288 177.516 314.666 177.516ZM314.204 186H315.128V179H314.204V186Z" fill="#35369B"/>
<path d="M320.365 178.832C319.371 178.832 318.559 179.21 318.013 180.092V179H317.089V186H318.013V182.332C318.013 180.456 319.049 179.728 320.281 179.728C321.499 179.728 322.185 180.456 322.185 181.702V186H323.109V181.702C323.109 179.952 322.073 178.832 320.365 178.832Z" fill="#35369B"/>
<path d="M330.916 179V180.372C330.328 179.434 329.334 178.832 328.088 178.832C326.114 178.832 324.476 180.428 324.476 182.5C324.476 184.572 326.114 186.168 328.088 186.168C329.334 186.168 330.328 185.566 330.916 184.628V185.72C330.916 187.148 329.95 188.072 328.326 188.072C326.814 188.072 326.17 187.512 325.82 186.798L325.008 187.26C325.554 188.352 326.716 188.968 328.326 188.968C330.132 188.968 331.84 187.848 331.84 185.72V179H330.916ZM328.158 185.272C326.604 185.272 325.4 184.054 325.4 182.5C325.4 180.946 326.604 179.728 328.158 179.728C329.712 179.728 330.916 180.946 330.916 182.5C330.916 184.054 329.712 185.272 328.158 185.272Z" fill="#35369B"/>
<path d="M287.852 200.168C289.812 200.168 291.156 199.104 291.156 197.424C291.156 195.604 289.56 195.1 287.782 194.512C286.452 194.078 285.612 193.742 285.612 192.678C285.612 191.6 286.466 190.984 287.642 190.984C288.93 190.984 289.686 191.726 290.05 192.608L290.876 192.146C290.372 190.984 289.252 190.032 287.642 190.032C286.018 190.032 284.632 190.998 284.632 192.72C284.632 194.526 286.172 194.946 287.768 195.478C289.21 195.954 290.176 196.318 290.176 197.452C290.176 198.502 289.35 199.216 287.866 199.216C286.326 199.216 285.402 198.46 285.052 197.284L284.212 197.774C284.716 199.258 286.046 200.168 287.852 200.168Z" fill="#35369B"/>
<path d="M297.626 193V196.668C297.626 198.544 296.59 199.272 295.358 199.272C294.14 199.272 293.454 198.544 293.454 197.298V193H292.53V197.298C292.53 199.048 293.566 200.168 295.274 200.168C296.268 200.168 297.08 199.79 297.626 198.908V200H298.55V193H297.626Z" fill="#35369B"/>
<path d="M304.257 192.832C303.011 192.832 302.017 193.434 301.429 194.372V193H300.505V202.8H301.429V198.628C302.017 199.566 303.011 200.168 304.257 200.168C306.231 200.168 307.869 198.572 307.869 196.5C307.869 194.428 306.231 192.832 304.257 192.832ZM304.187 199.272C302.633 199.272 301.429 198.054 301.429 196.5C301.429 194.946 302.633 193.728 304.187 193.728C305.741 193.728 306.945 194.946 306.945 196.5C306.945 198.054 305.741 199.272 304.187 199.272Z" fill="#35369B"/>
<path d="M313.157 192.832C311.911 192.832 310.917 193.434 310.329 194.372V193H309.405V202.8H310.329V198.628C310.917 199.566 311.911 200.168 313.157 200.168C315.131 200.168 316.769 198.572 316.769 196.5C316.769 194.428 315.131 192.832 313.157 192.832ZM313.087 199.272C311.533 199.272 310.329 198.054 310.329 196.5C310.329 194.946 311.533 193.728 313.087 193.728C314.641 193.728 315.845 194.946 315.845 196.5C315.845 198.054 314.641 199.272 313.087 199.272Z" fill="#35369B"/>
<path d="M318.306 200H319.23V189.78H318.306V200Z" fill="#35369B"/>
<path d="M326.231 193L323.963 198.866L321.331 193H320.351L323.487 200.042L323.305 200.476C322.927 201.386 322.297 202.03 321.387 201.932V202.8C322.647 202.898 323.683 201.988 324.215 200.644L327.211 193H326.231Z" fill="#35369B"/>
<path d="M263.884 243.3L216 116" stroke="#0F18C1" stroke-dasharray="3 3"/>
<path d="M79.8682 242.389L127.752 115.088" stroke="#0F18C1" stroke-dasharray="3 3"/>
<path d="M105.584 114.951C107.264 89.4833 115.865 74.3699 138.942 74.3699C171.108 74.3699 172.068 114.848 172.068 114.848C156.263 120.134 124.284 123.37 105.584 114.951Z" fill="#EE6161"/>
<path d="M106.767 114.951C108.166 96.7606 113.575 78.4557 134.217 75.7837C151.11 73.5973 162.902 84.0417 168.018 99.2319C169.386 103.301 170.195 107.589 170.665 111.85C171.153 116.286 168.164 114.852 163.759 115.891C145.452 120.2 123.519 121.152 105.899 113.809C104.489 113.222 103.879 115.514 105.269 116.093C125.644 124.583 151.7 122.556 172.383 115.99C172.876 115.832 173.268 115.388 173.253 114.848C172.807 100.059 166.255 81.1203 151.22 75.4706C141.13 71.681 127.309 72.086 118.575 79.0989C107.791 87.7563 105.404 101.896 104.399 114.951C104.282 116.474 106.651 116.462 106.767 114.951Z" fill="#545CB4"/>
<path d="M132.469 66.6012C132.12 74.3698 129.649 82.9447 139.047 82.7872C147.586 82.6485 145.739 74.8048 145.158 66.6012" fill="white"/>
<path d="M131.284 66.6012C130.924 73.3947 128.71 83.166 138.147 83.9591C148.657 84.8423 146.865 73.4884 146.341 66.6012C146.225 65.0879 143.857 65.0767 143.973 66.6012C144.202 69.6163 144.586 72.6278 144.539 75.658C144.472 79.8489 142.274 81.6508 138.147 81.5908C130.776 81.4839 133.409 71.2177 133.652 66.6012C133.733 65.0748 131.365 65.0823 131.284 66.6012Z" fill="#545CB4"/>
<path d="M135.501 33.4342C123.386 34.3567 118.528 41.319 118.535 52.3953C118.545 65.2267 126.234 71.2665 140.65 71.2665C156.013 71.2665 162.068 57.6606 157.77 45.1874C154.492 35.4837 143.911 32.5154 135.501 33.4342Z" fill="white"/>
<path d="M135.501 32.2509C122.715 33.6722 116.999 41.7709 117.416 54.3641C117.817 66.4492 127.577 71.6208 138.43 72.4008C150.948 73.299 159.984 65.1291 160.298 52.6896C160.654 38.5419 148.276 31.3002 135.501 32.2509C133.988 32.3634 133.977 34.7316 135.501 34.6191C146.12 33.8278 155.19 38.2306 157.607 49.2638C160.131 60.7845 151.77 69.5844 140.65 70.0832C131.507 70.492 122.784 67.0005 120.251 57.6549C117.059 45.8736 123.585 35.943 135.501 34.6191C137.001 34.4522 137.016 32.0821 135.501 32.2509Z" fill="#545CB4"/>
<path d="M228.433 115.654C226.711 89.5366 217.892 74.0472 194.232 74.0472C161.253 74.0472 160.269 115.546 160.269 115.546C176.474 120.965 209.259 124.285 228.433 115.654Z" fill="#94A6DC"/>
<path d="M229.415 115.654C228.453 102.799 226.151 88.8219 215.991 79.8742C206.905 71.8718 191.65 71.2334 180.909 75.743C166.167 81.9329 159.714 100.677 159.286 115.546C159.272 115.996 159.597 116.364 160.007 116.495C181.192 123.284 208.086 125.31 228.929 116.503C230.093 116.01 229.09 114.316 227.936 114.804C209.83 122.456 187.742 120.885 168.932 116.884C164.044 115.844 161.008 117.101 161.5 112.248C161.97 107.616 163.032 103.055 164.477 98.6338C169.574 83.0416 181.726 74.1874 198.254 75.1903C220.055 76.5139 226.07 97.2416 227.45 115.654C227.544 116.909 229.51 116.918 229.415 115.654Z" fill="#545CB4"/>
<path d="M200.869 66.0791C201.227 74.0472 203.759 82.8345 194.123 82.6787C185.37 82.5355 187.261 74.4879 187.86 66.0791" fill="white"/>
<path d="M199.886 66.079C200.168 71.3844 202.809 81.0265 195.047 81.6821C185.965 82.4482 188.408 71.7768 188.843 66.079C188.939 64.813 186.973 64.8223 186.876 66.079C186.554 70.3037 185.657 74.8351 186.846 78.9943C187.91 82.7145 191.596 83.7002 195.047 83.6488C204.581 83.504 202.183 72.3233 201.853 66.079C201.786 64.8177 199.818 64.8114 199.886 66.079Z" fill="#545CB4"/>
<path d="M197.76 32.0747C210.181 33.0215 215.161 40.1612 215.154 51.5163C215.143 64.673 207.259 70.8629 192.482 70.8629C176.729 70.8629 170.522 56.9182 174.929 44.1243C178.288 34.1816 189.137 31.1326 197.76 32.0747Z" fill="white"/>
<path d="M197.761 33.0572C209.587 34.3497 214.469 42.036 214.11 53.4377C213.758 64.648 204.592 69.1576 194.646 69.8334C182.905 70.6307 174.628 63.1406 174.541 51.4554C174.445 38.3672 186.061 32.1603 197.761 33.0572C199.025 33.1553 199.016 31.187 197.761 31.092C185.6 30.1593 173.643 36.3165 172.704 49.6336C171.805 62.3792 179.749 71.3034 192.482 71.8469C203.331 72.3094 214.734 67.1551 215.899 55.255C217.202 41.9348 211.423 32.5838 197.761 31.092C196.501 30.9534 196.513 32.9217 197.761 33.0572Z" fill="#545CB4"/>
<path d="M125.698 349.395L149.893 373.589C152.702 376.399 152.702 380.954 149.893 383.763L147.956 385.7C145.147 388.51 140.592 388.51 137.782 385.7L113.728 361.646L96.4111 344.065L110.028 332.587L125.698 349.395Z" fill="#35369B"/>
<path d="M70.9089 377.786C110.07 377.786 141.817 346.04 141.817 306.878C141.817 267.717 110.07 235.97 70.9089 235.97C31.7475 235.97 0.000976562 267.717 0.000976562 306.878C0.000976562 346.04 31.7475 377.786 70.9089 377.786Z" fill="#35369B"/>
<path d="M25.5034 300.824C25.5034 286.349 29.8418 272.888 37.2879 261.669H16.2824C6.11326 273.941 0 289.695 0 306.878C0 346.04 31.7467 377.786 70.9079 377.786C81.1982 377.786 90.9781 375.592 99.803 371.649C98.68 371.702 97.5475 371.732 96.4113 371.732C57.2501 371.732 25.5034 339.985 25.5034 300.824Z" fill="#35369B"/>
<path d="M121.324 306.227L42.0658 305.47L23.9717 331.443L25.2873 341.587C26.8579 343.605 28.5635 345.513 30.3856 347.295L50.2729 352.38H95.7511L109.46 347.295C118.89 338.071 125.108 325.568 126.264 311.629L121.324 306.227Z" fill="#83D4AE"/>
<path d="M29.3061 323.786L23.9717 331.443L25.2873 341.586C26.8579 343.605 28.5635 345.513 30.3856 347.295L46.817 351.496C38.99 343.834 32.9292 334.376 29.3061 323.786Z" fill="#68CA9B"/>
<path d="M21.9272 302.299L13.582 311.629C14.1127 318.046 15.7201 324.16 18.2171 329.789H18.2201L30.2954 327.858L42.0661 306.227L21.9272 302.299Z" fill="#83D4AE"/>
<path d="M30.6089 327.282C27.5751 319.744 25.7984 311.565 25.5398 303.004L21.9272 302.299L13.582 311.629C14.1127 318.046 15.7201 324.16 18.2171 329.789H18.2201L30.2954 327.858L30.6089 327.282Z" fill="#68CA9B"/>
<path d="M10.1982 270.225C11.174 273.029 12.5728 275.688 14.3817 278.127L25.0006 292.77C26.2549 294.499 27.1193 296.434 27.5705 298.522L28.3669 302.207C29.3629 306.817 33.5096 310.163 38.2265 310.163C42.9428 310.163 47.0895 306.818 48.0864 302.207L48.8828 298.522C49.334 296.434 50.1984 294.498 51.4524 292.77L62.0722 278.127C65.9839 272.85 67.9965 266.58 67.8919 259.995C67.7707 252.328 64.7072 245.085 59.266 239.599C58.4795 238.807 57.6522 238.069 56.7954 237.377C37.0559 241.364 20.2885 253.548 10.1982 270.225Z" fill="#35369B"/>
<path d="M108.29 272.686L105.599 263.012C95.869 255.085 83.4517 250.337 69.9239 250.337C41.3868 250.337 17.7853 271.481 13.9355 298.957H13.9386L25.4667 305.47H92.3006L113.287 289.352L108.29 272.686Z" fill="#83D4AE"/>
<path d="M25.6586 305.47C25.5592 303.934 25.5031 302.386 25.5031 300.824C25.5031 286.349 29.8415 272.889 37.2876 261.669H35.968C24.2485 270.486 16.0653 283.75 13.9346 298.957H13.9376L25.4657 305.47H25.6586Z" fill="#68CA9B"/>
<path d="M48.086 302.207L48.8823 298.523C49.3335 296.434 50.198 294.499 51.452 292.77L62.0717 278.127C65.9834 272.85 67.996 266.581 67.8914 259.995C67.8396 256.704 67.2417 253.493 66.15 250.463C44.835 251.868 26.7486 265.086 18.373 283.631L25.0004 292.77C26.2547 294.499 27.1192 296.435 27.5704 298.522L28.3667 302.207C28.6222 303.39 29.0867 304.489 29.7134 305.47H46.739C47.3657 304.489 47.8302 303.39 48.086 302.207Z" fill="#68CA9B"/>
<path d="M114.578 272.196L106.946 273.318L88.1553 301.587L109.382 306.227L125.912 298.957C124.513 288.96 120.498 279.803 114.578 272.196Z" fill="#83D4AE"/>
<path d="M126.464 306.877C126.464 308.479 126.396 310.062 126.265 311.629H126.261H48.644C47.7397 311.629 46.8897 312.06 46.3556 312.79L25.2879 341.586C22.478 337.979 20.0946 334.022 18.2172 329.788H18.2203L30.7076 312.72C31.0392 312.266 30.7155 311.629 30.1539 311.629H13.5822C13.4503 310.061 13.3828 308.478 13.3828 306.877C13.3828 304.19 13.5699 301.546 13.935 298.957H13.938H79.0572C79.2084 298.957 79.3505 298.885 79.4397 298.763L105.596 263.015L105.599 263.012C108.927 265.721 111.942 268.803 114.577 272.196L95.5488 298.203C95.3197 298.517 95.5433 298.957 95.9313 298.957H125.909H125.912C126.277 301.543 126.464 304.19 126.464 306.877Z" fill="#FDF6EC"/>
<path d="M32.5465 331.666C30.3388 327.103 28.6084 322.267 27.4139 317.223L18.2208 329.789H18.2178C20.0951 334.022 22.4786 337.979 25.2884 341.586L32.5465 331.666Z" fill="#FEF1DA"/>
<path d="M26.3216 311.629C25.783 308.106 25.5035 304.498 25.5035 300.824C25.5035 300.199 25.5146 299.577 25.5305 298.957H13.938H13.935C13.5699 301.546 13.3828 304.19 13.3828 306.877C13.3828 308.479 13.4503 310.062 13.5822 311.629H26.3216Z" fill="#FEF1DA"/>
<path d="M48.7879 298.957H27.6641L28.3662 302.207C29.3622 306.817 33.5089 310.164 38.2258 310.164C42.9422 310.164 47.0888 306.818 48.0858 302.207L48.7879 298.957Z" fill="#FEF1DA"/>
<path d="M38.7935 236.945C25.5363 236.633 14.6914 247.287 14.6914 260.473C14.6914 265.729 16.4157 270.581 19.3274 274.498L29.9661 289.168C31.7122 291.575 32.9379 294.319 33.5662 297.226L34.3625 300.911C34.7554 302.73 36.3644 304.028 38.2254 304.028C40.0865 304.028 41.6954 302.73 42.0884 300.911L42.8847 297.226C43.5129 294.319 44.7387 291.575 46.4847 289.168L57.1235 274.498C60.1054 270.487 61.842 265.494 61.7564 260.092C61.5579 247.533 51.3498 237.241 38.7935 236.945Z" fill="#EE6161"/>
<path d="M41.7298 295.497C41.1015 292.59 39.8758 289.846 38.1297 287.439L27.4909 272.769C24.5789 268.852 22.855 263.999 22.855 258.744C22.855 248.894 28.9066 240.46 37.4932 236.952C24.8348 237.339 14.6914 247.72 14.6914 260.473C14.6914 265.729 16.4157 270.581 19.3274 274.498L29.9661 289.168C31.7122 291.575 32.9379 294.319 33.5662 297.226L34.3625 300.911C34.7555 302.73 36.3644 304.028 38.2254 304.028C40.0865 304.028 41.6954 302.73 42.0884 300.911L42.4942 299.034L41.7298 295.497Z" fill="#E94444"/>
<path d="M28.5778 252.123C30.9171 249.42 34.3714 247.712 38.2255 247.712C45.2728 247.712 50.9851 253.427 50.9851 260.474C50.9851 263.667 49.813 266.586 47.8731 268.823C45.5338 271.526 42.0795 273.234 38.2255 273.234C31.1782 273.234 25.4658 267.521 25.4658 260.474C25.4658 257.28 26.6379 254.362 28.5778 252.123Z" fill="#F9F7F8"/>
<path d="M109.46 347.295C99.2639 357.271 85.3128 363.418 69.923 363.418C54.5333 363.418 40.5822 357.271 30.3857 347.295H109.46Z" fill="#FDF6EC"/>
<path d="M42.854 347.295H30.3857C38.8174 355.544 49.8182 361.172 62.0754 362.874C54.7854 358.831 48.281 353.544 42.854 347.295Z" fill="#FEF1DA"/>
<path d="M70.9071 352.228C69.6362 352.228 68.6064 351.198 68.6064 349.928V331.929C68.6064 330.659 69.6362 329.628 70.9071 329.628C72.178 329.628 73.2077 330.659 73.2077 331.929V349.928C73.2077 351.198 72.178 352.228 70.9071 352.228Z" fill="#FDDEB0"/>
<path d="M70.9081 338.845C74.9962 338.845 78.3103 335.531 78.3103 331.443C78.3103 327.355 74.9962 324.041 70.9081 324.041C66.82 324.041 63.5059 327.355 63.5059 331.443C63.5059 335.531 66.82 338.845 70.9081 338.845Z" fill="#EE6161"/>
<path d="M313.171 386.374C313.449 393.197 307.988 398.874 301.164 398.854L241.531 398.727C234.647 398.708 229.185 392.912 229.585 386.05L231.791 347.976L234.49 301.25L235.421 285.211C235.866 277.388 242.338 271.299 250.141 271.27L252.387 259.289L292.723 259.983L295.058 272.204C302.675 272.593 308.788 278.711 309.101 286.378L309.663 300.198L311.571 346.976L313.171 386.374Z" fill="white"/>
<path d="M313.17 386.374L312.599 386.397L312.604 386.537C312.694 389.694 311.497 392.581 309.491 394.707C307.484 396.831 304.675 398.187 301.535 398.277C301.413 398.281 301.289 398.282 301.165 398.282L241.532 398.155C235.315 398.139 230.316 393.172 230.141 387.09C230.132 386.758 230.136 386.422 230.156 386.083L232.362 348.008L235.061 301.284L235.991 285.245C236.412 277.844 242.442 272.06 249.78 271.848C249.9 271.845 250.022 271.842 250.142 271.842L250.616 271.84L252.859 259.869L292.248 260.547L294.578 272.752L295.028 272.775C302.352 273.149 308.227 279.032 308.529 286.402L309.091 300.221L310.998 346.999L312.599 386.397L313.17 386.374L313.742 386.351L312.141 346.952L310.234 300.174L309.672 286.355C309.345 278.392 302.998 272.037 295.085 271.633L295.057 272.204L295.618 272.096L293.197 259.42L251.913 258.708L249.577 271.165L250.14 271.27L250.139 270.698C250.007 270.698 249.877 270.701 249.747 270.705C241.818 270.933 235.305 277.183 234.849 285.179L233.919 301.218L231.22 347.943L229.014 386.016C228.992 386.389 228.987 386.757 228.998 387.123C229.191 393.821 234.69 399.279 241.53 399.298L301.163 399.426C301.298 399.426 301.433 399.424 301.568 399.42C308.477 399.221 313.947 393.448 313.748 386.504L313.742 386.352L313.17 386.374Z" fill="#35369B"/>
<path d="M311.616 348.136C303.879 350.041 287.102 352.52 270.394 352.982C252.819 353.467 237.755 349.724 231.791 347.976L234.49 301.25C243.421 302.119 256.303 303.161 270.251 303.625C288.145 304.224 302.494 301.766 309.663 300.198L311.616 348.136Z" fill="#35369B"/>
<path d="M311.616 348.135L311.48 347.581C303.845 349.461 287.204 351.926 270.629 352.403L270.378 352.41C252.894 352.894 237.878 349.164 231.951 347.426L231.791 347.976L232.362 348.008L235.061 301.284L234.49 301.25L234.434 301.82C243.375 302.689 256.267 303.731 270.232 304.196C273.843 304.317 277.31 304.314 280.603 304.219C293.687 303.841 304.031 302.016 309.785 300.756L309.663 300.198L309.091 300.221L311.044 348.159L311.616 348.135L311.48 347.581L311.616 348.135L312.188 348.112L310.207 299.493L309.54 299.639C303.841 300.886 293.565 302.701 280.57 303.075C277.3 303.17 273.857 303.173 270.27 303.053C256.338 302.59 243.468 301.549 234.546 300.681L233.954 300.624L231.193 348.397L231.63 348.525C237.632 350.282 252.745 354.04 270.41 353.553L270.662 353.546C287.335 353.063 303.992 350.6 311.753 348.691L312.207 348.58L312.188 348.112L311.616 348.135Z" fill="#35369B"/>
<path d="M235.985 355.327C235.985 355.327 231.639 381.016 236.946 388.644C242.253 396.271 293.745 394.787 301.398 391.692C309.05 388.596 298.946 384.416 272.758 384.643C246.569 384.871 242.281 383.661 241.509 375.175C240.738 366.687 241.089 347.022 235.985 355.327Z" fill="#E8E9E6"/>
<path d="M247.991 255.193C247.991 255.193 248.996 259.293 259.414 260.097C269.833 260.902 292.926 261.49 296.026 259.042C299.126 256.594 283.073 257.278 272.365 256.702C261.659 256.126 252.347 253.964 250.769 253.639C249.192 253.316 247.627 252.772 247.991 255.193Z" fill="#4A61B6"/>
<path d="M244.172 255.534L244.194 255.857C244.438 259.427 247.406 262.198 250.986 262.196L295.072 262.181C298.511 262.18 301.409 259.615 301.826 256.202C302.317 252.167 299.184 248.604 295.118 248.576L251.009 248.269C247.05 248.242 243.904 251.584 244.172 255.534Z" fill="#35369B"/>
<path d="M244.172 255.534L243.602 255.572L243.624 255.895C243.887 259.766 247.105 262.769 250.985 262.768L295.072 262.753L295.285 262.75C298.92 262.645 301.949 259.9 302.393 256.271C302.439 255.895 302.456 255.521 302.445 255.154C302.333 251.257 299.15 248.034 295.122 248.004L251.013 247.698L250.744 247.7C246.676 247.818 243.47 251.215 243.588 255.278L243.602 255.574L243.602 255.572L244.172 255.534L244.743 255.494L244.731 255.245C244.682 253.528 245.333 251.956 246.429 250.794C247.525 249.635 249.058 248.894 250.777 248.843L251.005 248.841L295.114 249.148C298.517 249.17 301.207 251.901 301.302 255.187C301.311 255.498 301.297 255.813 301.258 256.133C300.883 259.198 298.322 261.518 295.252 261.607L295.071 261.608L250.985 261.624C247.707 261.626 244.987 259.088 244.765 255.818L244.743 255.496L244.743 255.494L244.172 255.534Z" fill="#35369B"/>
<path d="M245.49 330.381L247.621 330.319L251.061 319.407L249.131 319.463L246.493 328.205L243.372 319.629L241.427 319.685L245.49 330.381Z" fill="white"/>
<path d="M258.949 329.993L260.864 329.937L256.646 319.246L254.516 319.308L250.905 330.224L252.835 330.169L253.529 327.971L258.13 327.838L258.949 329.993ZM254.068 326.287L255.641 321.361L257.495 326.188L254.068 326.287Z" fill="white"/>
<path d="M266.735 329.969C268.727 329.912 270.458 328.842 271.308 327.242L269.739 326.407C269.214 327.488 268.044 328.201 266.686 328.24C264.354 328.308 262.763 326.701 262.699 324.478C262.634 322.256 264.131 320.56 266.462 320.493C267.821 320.453 269.014 321.099 269.616 322.147L271.134 321.207C270.178 319.66 268.389 318.707 266.412 318.764C263.124 318.859 260.833 321.396 260.923 324.529C261.013 327.662 263.447 330.064 266.735 329.969Z" fill="white"/>
<path d="M277.893 329.647C279.885 329.59 281.615 328.52 282.466 326.92L280.896 326.085C280.371 327.166 279.202 327.88 277.843 327.919C275.512 327.986 273.92 326.379 273.856 324.157C273.792 321.934 275.288 320.238 277.62 320.171C278.978 320.132 280.171 320.777 280.773 321.825L282.292 320.886C281.335 319.338 279.546 318.385 277.57 318.442C274.281 318.537 271.99 321.075 272.081 324.208C272.171 327.341 274.604 329.742 277.893 329.647Z" fill="white"/>
<path d="M283.698 318.467L284.01 329.27L285.785 329.219L285.474 318.415L283.698 318.467Z" fill="white"/>
<path d="M294.118 318.166L294.329 325.497L289.023 318.313L287.633 318.353L287.945 329.157L289.72 329.105L289.509 321.774L294.816 328.959L296.205 328.919L295.894 318.115L294.118 318.166Z" fill="white"/>
<path d="M300.09 327.107L300.006 324.19L304.329 324.066L304.281 322.384L299.958 322.508L299.877 319.699L304.586 319.563L304.537 317.866L298.052 318.053L298.364 328.856L304.926 328.667L304.877 326.969L300.09 327.107Z" fill="white"/>
<path d="M28.0388 138.153C29.4905 137.34 31.342 137.15 33.1123 137.598C33.9738 137.816 34.7098 138.375 35.1518 139.146L36.678 141.808C37.8084 143.779 37.1877 146.291 35.269 147.51L33.9263 148.362C33.3705 148.715 33.1667 149.253 33.2942 149.681C33.7489 151.206 34.7573 152.901 35.8659 154.06C36.1958 154.405 36.7997 154.488 37.392 154.143L38.1349 153.709C40.1877 152.512 42.8234 153.23 43.9845 155.304L45.3507 157.744C45.7978 158.542 45.8726 159.496 45.5551 160.355C44.9246 162.06 43.7099 163.434 42.2156 164.123C40.6975 164.822 38.9198 164.794 37.3116 163.721C34.7662 162.023 31.6971 159.168 28.9179 154.403C26.1026 149.577 25.3928 145.467 25.4727 142.405C25.5239 140.443 26.5612 138.979 28.0388 138.153ZM43.6649 137.507C43.2545 137.279 42.737 137.427 42.509 137.837C42.2811 138.247 42.4288 138.765 42.8392 138.993L43.492 139.356C47.6315 141.655 50.3816 145.837 50.8528 150.549L50.9062 151.084C50.9529 151.552 51.3694 151.892 51.8366 151.846C52.3037 151.799 52.6446 151.382 52.5978 150.915L52.5443 150.38C52.0176 145.114 48.944 140.44 44.3175 137.869L43.6649 137.507ZM41.6733 142.063C41.9147 141.66 42.4369 141.53 42.8395 141.771L43.0505 141.898C45.8266 143.563 47.7326 146.363 48.2649 149.556L48.3405 150.01C48.4177 150.473 48.1049 150.911 47.6418 150.988C47.1788 151.066 46.7408 150.753 46.6637 150.29L46.588 149.836C46.1377 147.134 44.5249 144.765 42.1758 143.355L41.9649 143.229C41.5623 142.987 41.4317 142.465 41.6733 142.063Z" fill="#35369B"/>
<path d="M303 138C310.18 138 316 143.82 316 151C316 158.18 310.18 164 303 164C295.82 164 290 158.18 290 151C290 143.82 295.82 138 303 138ZM308.612 146.85C308.316 146.554 307.848 146.535 307.529 146.791L307.463 146.85L300.887 153.426L298.537 151.075C298.22 150.758 297.705 150.758 297.388 151.075C297.092 151.372 297.072 151.839 297.329 152.159L297.388 152.225L300.313 155.15C300.609 155.446 301.077 155.465 301.396 155.209L301.462 155.15L308.612 148C308.929 147.682 308.929 147.168 308.612 146.85Z" fill="#35369B"/>
</svg>
