<svg width="44" height="50" viewBox="0 0 44 50" fill="none" xmlns="http://www.w3.org/2000/svg">
<path d="M26.5622 20.7264C25.1325 20.7264 24.0038 21.9471 24.0038 23.4667C24.0038 24.9863 25.1576 26.2069 26.5622 26.2069C27.992 26.2069 29.1207 24.9863 29.1207 23.4667C29.1207 21.9471 27.9669 20.7264 26.5622 20.7264ZM17.4071 20.7264C15.9774 20.7264 14.8486 21.9471 14.8486 23.4667C14.8486 24.9863 16.0024 26.2069 17.4071 26.2069C18.8368 26.2069 19.9655 24.9863 19.9655 23.4667C19.9906 21.9471 18.8368 20.7264 17.4071 20.7264Z" fill="#303132"/>
<path d="M38.7528 0H5.14195C2.30761 0 0 2.29184 0 5.10683V38.488C0 41.303 2.30761 43.5949 5.14195 43.5949H33.5857L32.2563 39.0361L35.4669 41.9756L38.5019 44.7408L43.9198 49.3992V5.10683C43.8947 2.29184 41.5871 0 38.7528 0ZM29.0708 32.2602C29.0708 32.2602 28.1679 31.189 27.4154 30.2673C30.7012 29.3456 31.9553 27.3278 31.9553 27.3278C30.927 28.0004 29.9487 28.4737 29.0708 28.7975C27.8167 29.3207 26.6127 29.6445 25.4339 29.8687C23.0259 30.3171 20.8186 30.1926 18.9374 29.8438C17.5077 29.5698 16.2787 29.1961 15.2503 28.7726C14.6734 28.5484 14.0463 28.2744 13.4192 27.9256C13.344 27.8758 13.2687 27.8509 13.1935 27.8011C13.1433 27.7762 13.1182 27.7512 13.0932 27.7512C12.6417 27.5021 12.3909 27.3278 12.3909 27.3278C12.3909 27.3278 13.5948 29.2957 16.7803 30.2424C16.0278 31.189 15.0998 32.2851 15.0998 32.2851C9.55651 32.1107 7.44956 28.5235 7.44956 28.5235C7.44956 20.5768 11.0615 14.1247 11.0615 14.1247C14.6734 11.4592 18.0846 11.534 18.0846 11.534L18.3354 11.8329C13.8206 13.1034 11.7638 15.0714 11.7638 15.0714C11.7638 15.0714 12.3156 14.7724 13.2437 14.3738C15.9275 13.203 18.0595 12.9041 18.9374 12.8044C19.0879 12.7795 19.2133 12.7546 19.3638 12.7546C20.8939 12.5553 22.6246 12.5055 24.4305 12.7048C26.8134 12.9788 29.3718 13.6763 31.9804 15.0714C31.9804 15.0714 29.9989 13.203 25.7348 11.9325L26.086 11.534C26.086 11.534 29.5223 11.4592 33.1092 14.1247C33.1092 14.1247 36.7211 20.5768 36.7211 28.5235C36.7211 28.4986 34.6141 32.0858 29.0708 32.2602Z" fill="#303132"/>
</svg>
