<svg width="31" height="31" viewBox="0 0 31 31" fill="none" xmlns="http://www.w3.org/2000/svg">
<path opacity="0.8" d="M15.5015 0C11.2919 0 10.7636 0.0183964 9.11022 0.0935947C7.4601 0.169116 6.33375 0.430212 5.3482 0.813303C4.32874 1.20898 3.46396 1.73827 2.60241 2.59966C1.74022 3.46073 1.21063 4.32503 0.813435 5.34359C0.42916 6.32892 0.167595 7.45495 0.0933237 9.10351C0.0193751 10.7559 0 11.2843 0 15.4915C0 19.6987 0.0187297 20.2251 0.0936471 21.8775C0.169533 23.5267 0.430775 24.6524 0.813759 25.6374C1.20998 26.6563 1.73957 27.5206 2.60144 28.3817C3.46267 29.2434 4.32745 29.774 5.34626 30.1697C6.33246 30.5528 7.45913 30.8138 9.10893 30.8894C10.7623 30.9646 11.2903 30.983 15.4995 30.983C19.7094 30.983 20.2361 30.9646 21.8895 30.8894C23.5396 30.8138 24.6672 30.5528 25.6534 30.1697C26.6725 29.774 27.536 29.2434 28.3973 28.3817C29.2595 27.5206 29.789 26.6563 30.1862 25.6378C30.5673 24.6524 30.8289 23.5264 30.9064 21.8778C30.9806 20.2254 31 19.6987 31 15.4915C31 11.2843 30.9806 10.7563 30.9064 9.10383C30.8289 7.45463 30.5673 6.32892 30.1862 5.34392C29.789 4.32503 29.2595 3.46073 28.3973 2.59966C27.5351 1.73795 26.6729 1.20866 25.6524 0.813303C24.6643 0.430212 23.5373 0.169116 21.8872 0.0935947C20.2338 0.0183964 19.7075 0 15.4966 0H15.5015ZM14.111 2.79169C14.5237 2.79105 14.9841 2.79169 15.5015 2.79169C19.64 2.79169 20.1305 2.80654 21.7648 2.88077C23.2761 2.94984 24.0963 3.20222 24.6427 3.41426C25.366 3.69504 25.8817 4.03069 26.4239 4.57289C26.9664 5.11509 27.3022 5.63148 27.5838 6.35441C27.796 6.89984 28.0488 7.7196 28.1176 9.23002C28.1919 10.8631 28.208 11.3536 28.208 15.4879C28.208 19.6222 28.1919 20.1128 28.1176 21.7458C28.0485 23.2563 27.796 24.076 27.5838 24.6215C27.3029 25.3444 26.9664 25.8592 26.4239 26.401C25.8814 26.9432 25.3663 27.2789 24.6427 27.5597C24.0969 27.7727 23.2761 28.0244 21.7648 28.0935C20.1308 28.1677 19.64 28.1838 15.5015 28.1838C11.3626 28.1838 10.8721 28.1677 9.2381 28.0935C7.72683 28.0238 6.90661 27.7714 6.35991 27.5593C5.63657 27.2786 5.1199 26.9429 4.57739 26.4007C4.03489 25.8585 3.69905 25.3434 3.41746 24.6202C3.2053 24.0747 2.95246 23.255 2.88368 21.7446C2.8094 20.1115 2.79455 19.6209 2.79455 15.4841C2.79455 11.3472 2.8094 10.8592 2.88368 9.22615C2.95278 7.71573 3.2053 6.89597 3.41746 6.34989C3.6984 5.62696 4.03489 5.11058 4.57739 4.56837C5.1199 4.02617 5.63657 3.69052 6.35991 3.40909C6.90629 3.19609 7.72683 2.94435 9.2381 2.87496C10.668 2.81041 11.2221 2.79105 14.111 2.78782V2.79169ZM23.7753 5.36393C22.7484 5.36393 21.9153 6.19562 21.9153 7.22226C21.9153 8.24857 22.7484 9.08124 23.7753 9.08124C24.8022 9.08124 25.6353 8.24857 25.6353 7.22226C25.6353 6.19595 24.8022 5.36328 23.7753 5.36328V5.36393ZM15.5015 7.53596C11.1055 7.53596 7.54147 11.098 7.54147 15.4915C7.54147 19.8849 11.1055 23.4454 15.5015 23.4454C19.8974 23.4454 23.4601 19.8849 23.4601 15.4915C23.4601 11.098 19.897 7.53596 15.5011 7.53596H15.5015ZM15.5015 10.3277C18.3548 10.3277 20.6682 12.6394 20.6682 15.4915C20.6682 18.3432 18.3548 20.6553 15.5015 20.6553C12.6478 20.6553 10.3347 18.3432 10.3347 15.4915C10.3347 12.6394 12.6478 10.3277 15.5015 10.3277Z" fill="url(#paint0_radial)"/>
<defs>
<radialGradient id="paint0_radial" cx="0" cy="0" r="1" gradientUnits="userSpaceOnUse" gradientTransform="translate(8.23441 33.3693) rotate(-90) scale(30.7064 28.5751)">
<stop stop-color="#FFDD55"/>
<stop offset="0.1" stop-color="#FFDD55"/>
<stop offset="0.5" stop-color="#FF543E"/>
<stop offset="1" stop-color="#C837AB"/>
</radialGradient>
</defs>
</svg>
