<svg width="200" height="82" viewBox="0 0 200 82" fill="none" xmlns="http://www.w3.org/2000/svg">
<rect width="200" height="82" rx="15" fill="url(#paint0_linear)"/>
<path d="M28.2145 31.5426V30.6226L30.5545 30.1426V31.4626C30.5545 32.2626 30.7545 32.8626 31.1545 33.2626C31.5545 33.6626 32.0811 33.8626 32.7345 33.8626C33.3745 33.8626 33.8811 33.6626 34.2545 33.2626C34.6278 32.8493 34.8145 32.2826 34.8145 31.5626V21.6426H37.2145V31.5026C37.2145 32.796 36.8011 33.8893 35.9745 34.7826C35.1478 35.676 34.0745 36.1226 32.7545 36.1226C31.3678 36.1226 30.2611 35.7093 29.4345 34.8826C28.6211 34.0426 28.2145 32.9293 28.2145 31.5426ZM42.1943 33.2226C42.7276 33.7693 43.3743 34.0426 44.1343 34.0426C44.8943 34.0426 45.5343 33.7693 46.0543 33.2226C46.5876 32.676 46.8543 31.916 46.8543 30.9426C46.8543 29.9826 46.5876 29.236 46.0543 28.7026C45.5343 28.156 44.8943 27.8826 44.1343 27.8826C43.3743 27.8826 42.7276 28.156 42.1943 28.7026C41.6743 29.236 41.4143 29.9826 41.4143 30.9426C41.4143 31.9026 41.6743 32.6626 42.1943 33.2226ZM44.1343 25.7826C45.601 25.7826 46.8076 26.2693 47.7543 27.2426C48.7143 28.216 49.1943 29.4493 49.1943 30.9426C49.1943 32.436 48.7143 33.676 47.7543 34.6626C46.8076 35.636 45.601 36.1226 44.1343 36.1226C42.681 36.1226 41.4743 35.636 40.5143 34.6626C39.5676 33.676 39.0943 32.436 39.0943 30.9426C39.0943 29.4493 39.5676 28.216 40.5143 27.2426C41.4743 26.2693 42.681 25.7826 44.1343 25.7826ZM53.4363 35.8226H51.1363V26.0826H53.4363V35.8226ZM51.2163 23.7226C50.923 23.4293 50.7763 23.076 50.7763 22.6626C50.7763 22.2493 50.923 21.896 51.2163 21.6026C51.5097 21.296 51.863 21.1426 52.2763 21.1426C52.703 21.1426 53.063 21.2893 53.3563 21.5826C53.6497 21.876 53.7963 22.236 53.7963 22.6626C53.7963 23.076 53.6497 23.4293 53.3563 23.7226C53.063 24.016 52.703 24.1626 52.2763 24.1626C51.863 24.1626 51.5097 24.016 51.2163 23.7226ZM58.4493 30.2026V35.8226H56.1293V26.0826H58.3893V27.3826C58.696 26.8493 59.1026 26.456 59.6093 26.2026C60.1293 25.936 60.6826 25.8026 61.2693 25.8026C62.416 25.8026 63.2893 26.1626 63.8893 26.8826C64.4893 27.6026 64.7893 28.5293 64.7893 29.6626V35.8226H62.4693V30.0626C62.4693 29.4093 62.3093 28.8893 61.9893 28.5026C61.6693 28.1026 61.1626 27.9026 60.4693 27.9026C59.8293 27.9026 59.3293 28.1226 58.9693 28.5626C58.6226 28.9893 58.4493 29.536 58.4493 30.2026ZM78.3146 34.7426C78.0879 35.1693 77.7146 35.5026 77.1946 35.7426C76.6879 35.9826 76.1413 36.1026 75.5546 36.1026C74.4213 36.1026 73.5213 35.736 72.8546 35.0026C72.2013 34.2693 71.8746 33.3426 71.8746 32.2226V26.0826H74.1946V31.8026C74.1946 32.456 74.3546 32.9893 74.6746 33.4026C74.9946 33.816 75.4879 34.0226 76.1546 34.0226C76.8079 34.0226 77.3079 33.8226 77.6546 33.4226C78.0146 33.0226 78.1946 32.496 78.1946 31.8426V26.0826H80.5146V34.0426C80.5146 34.6293 80.5479 35.2226 80.6146 35.8226H78.3946C78.3413 35.5293 78.3146 35.1693 78.3146 34.7426ZM82.3576 33.1826L84.3776 32.6226C84.4176 33.0893 84.6109 33.4826 84.9576 33.8026C85.3042 34.1226 85.7709 34.2826 86.3576 34.2826C86.8109 34.2826 87.1642 34.176 87.4176 33.9626C87.6842 33.7493 87.8176 33.4826 87.8176 33.1626C87.8176 32.6026 87.4376 32.2426 86.6776 32.0826L85.2376 31.7626C84.3976 31.576 83.7509 31.2293 83.2976 30.7226C82.8442 30.216 82.6176 29.616 82.6176 28.9226C82.6176 28.0693 82.9642 27.336 83.6576 26.7226C84.3509 26.096 85.1976 25.7826 86.1976 25.7826C86.8376 25.7826 87.4042 25.876 87.8976 26.0626C88.3909 26.2493 88.7709 26.496 89.0376 26.8026C89.3176 27.096 89.5309 27.3826 89.6776 27.6626C89.8242 27.9426 89.9176 28.2226 89.9576 28.5026L87.9976 29.0626C87.9442 28.6893 87.7709 28.356 87.4776 28.0626C87.1976 27.756 86.7709 27.6026 86.1976 27.6026C85.7976 27.6026 85.4642 27.716 85.1976 27.9426C84.9309 28.156 84.7976 28.416 84.7976 28.7226C84.7976 29.2693 85.1242 29.6093 85.7776 29.7426L87.2576 30.0426C88.1642 30.2426 88.8576 30.6026 89.3376 31.1226C89.8176 31.6426 90.0576 32.2693 90.0576 33.0026C90.0576 33.816 89.7309 34.5426 89.0776 35.1826C88.4376 35.8093 87.5376 36.1226 86.3776 36.1226C85.7109 36.1226 85.1109 36.0226 84.5776 35.8226C84.0576 35.6226 83.6442 35.3693 83.3376 35.0626C83.0442 34.7426 82.8109 34.4293 82.6376 34.1226C82.4776 33.8026 82.3842 33.4893 82.3576 33.1826ZM99.0591 33.2226C99.5925 33.7693 100.239 34.0426 100.999 34.0426C101.759 34.0426 102.399 33.7693 102.919 33.2226C103.452 32.676 103.719 31.916 103.719 30.9426C103.719 29.9826 103.452 29.236 102.919 28.7026C102.399 28.156 101.759 27.8826 100.999 27.8826C100.239 27.8826 99.5925 28.156 99.0591 28.7026C98.5391 29.236 98.2791 29.9826 98.2791 30.9426C98.2791 31.9026 98.5391 32.6626 99.0591 33.2226ZM100.999 25.7826C102.466 25.7826 103.672 26.2693 104.619 27.2426C105.579 28.216 106.059 29.4493 106.059 30.9426C106.059 32.436 105.579 33.676 104.619 34.6626C103.672 35.636 102.466 36.1226 100.999 36.1226C99.5458 36.1226 98.3391 35.636 97.3791 34.6626C96.4325 33.676 95.9591 32.436 95.9591 30.9426C95.9591 29.4493 96.4325 28.216 97.3791 27.2426C98.3391 26.2693 99.5458 25.7826 100.999 25.7826ZM110.321 30.2026V35.8226H108.001V26.0826H110.261V27.3826C110.568 26.8493 110.975 26.456 111.481 26.2026C112.001 25.936 112.555 25.8026 113.141 25.8026C114.288 25.8026 115.161 26.1626 115.761 26.8826C116.361 27.6026 116.661 28.5293 116.661 29.6626V35.8226H114.341V30.0626C114.341 29.4093 114.181 28.8893 113.861 28.5026C113.541 28.1026 113.035 27.9026 112.341 27.9026C111.701 27.9026 111.201 28.1226 110.841 28.5626C110.495 28.9893 110.321 29.536 110.321 30.2026Z" fill="white" fill-opacity="0.8"/>
<path d="M36.6271 44.8581H31.1425V50.969L34.7934 54.2293V48.2986H36.7427C37.9817 48.2986 38.5929 48.8884 38.5929 49.8386V54.3767C38.5929 55.3269 38.0147 55.9659 36.7427 55.9659H31.126V59.4227H36.6105C39.5511 59.4391 42.3099 57.981 42.3099 54.6388V49.7567C42.3264 46.349 39.5676 44.8581 36.6271 44.8581ZM65.3715 54.6388V49.6256C65.3715 47.8235 68.6424 47.4139 69.6336 49.216L72.6567 48.0037C71.4673 45.4151 69.3032 44.6615 67.5026 44.6615C64.562 44.6615 61.6545 46.349 61.6545 49.6256V54.6388C61.6545 57.9482 64.562 59.6029 67.4365 59.6029C69.2867 59.6029 71.5003 58.7018 72.7228 56.3427L69.4849 54.8682C68.692 56.8833 65.3715 56.3918 65.3715 54.6388ZM55.377 50.3137C54.2372 50.0679 53.4773 49.6584 53.4277 48.9539C53.4938 47.2664 56.1204 47.2009 57.6568 48.8228L60.0852 46.9715C58.5653 45.1366 56.8473 44.6451 55.0797 44.6451C52.3869 44.6451 49.7768 46.1524 49.7768 49.003C49.7768 51.7718 51.9244 53.2627 54.2867 53.6231C55.4927 53.7869 56.8308 54.262 56.7977 55.0812C56.6986 56.6376 53.4607 56.5557 51.9905 54.7863L49.6447 56.9652C51.0158 58.7182 52.8825 59.6029 54.6336 59.6029C57.3264 59.6029 60.3164 58.0629 60.4321 55.245C60.5973 51.6899 57.9871 50.7888 55.377 50.3137ZM44.3088 59.4063H48.0092V44.8581H44.3088V59.4063ZM106.704 44.8581H101.219V50.969L104.87 54.2293V48.2986H106.82C108.059 48.2986 108.67 48.8884 108.67 49.8386V54.3767C108.67 55.3269 108.092 55.9659 106.82 55.9659H101.203V59.4227H106.704C109.645 59.4391 112.403 57.981 112.403 54.6388V49.7567C112.403 46.349 109.645 44.8581 106.704 44.8581ZM79.7933 44.6615C76.7536 44.6615 73.7305 46.2998 73.7305 49.6584V54.6225C73.7305 57.9482 76.7701 59.6193 79.8263 59.6193C82.8659 59.6193 85.8891 57.9482 85.8891 54.6225V49.6584C85.8891 46.3162 82.8329 44.6615 79.7933 44.6615ZM82.1721 54.6225C82.1721 55.671 80.9827 56.2116 79.8098 56.2116C78.6204 56.2116 77.4309 55.7037 77.4309 54.6225V49.6584C77.4309 48.5935 78.5873 48.0201 79.7437 48.0201C80.9497 48.0201 82.1721 48.5279 82.1721 49.6584V54.6225ZM99.171 49.6584C99.0884 46.2507 96.7426 44.8745 93.7195 44.8745H87.8549V59.4227H91.6049V54.8027H92.2657L95.6688 59.4227H100.294L96.2965 54.4259C98.0641 53.8688 99.171 52.3452 99.171 49.6584ZM93.7855 51.6243H91.6049V48.2986H93.7855C96.1148 48.2986 96.1148 51.6243 93.7855 51.6243Z" fill="white"/>
<path d="M163.089 38.7475C161.903 38.7475 160.967 39.7443 160.967 40.9852C160.967 42.2261 161.924 43.2228 163.089 43.2228C164.274 43.2228 165.21 42.2261 165.21 40.9852C165.21 39.7443 164.253 38.7475 163.089 38.7475ZM155.496 38.7475C154.31 38.7475 153.374 39.7443 153.374 40.9852C153.374 42.2261 154.331 43.2228 155.496 43.2228C156.682 43.2228 157.618 42.2261 157.618 40.9852C157.638 39.7443 156.682 38.7475 155.496 38.7475Z" fill="white"/>
<path d="M173.198 21.8226H145.324C142.973 21.8226 141.06 23.6941 141.06 25.9928V53.2514C141.06 55.5501 142.973 57.4216 145.324 57.4216H168.913L167.811 53.699L170.473 56.0994L172.99 58.3573L177.483 62.1613V25.9928C177.463 23.6941 175.549 21.8226 173.198 21.8226ZM165.169 48.1659C165.169 48.1659 164.42 47.2911 163.796 46.5385C166.521 45.7858 167.561 44.1381 167.561 44.1381C166.708 44.6873 165.897 45.0738 165.169 45.3383C164.129 45.7655 163.13 46.0299 162.153 46.213C160.156 46.5792 158.325 46.4775 156.765 46.1927C155.579 45.9689 154.56 45.6638 153.707 45.3179C153.229 45.1349 152.709 44.9111 152.188 44.6263C152.126 44.5856 152.064 44.5653 152.001 44.5246C151.96 44.5043 151.939 44.4839 151.918 44.4839C151.544 44.2805 151.336 44.1381 151.336 44.1381C151.336 44.1381 152.334 45.7451 154.976 46.5181C154.352 47.2911 153.582 48.1862 153.582 48.1862C148.985 48.0438 147.238 45.1145 147.238 45.1145C147.238 38.6253 150.233 33.3567 150.233 33.3567C153.229 31.1801 156.058 31.2411 156.058 31.2411L156.266 31.4852C152.521 32.5227 150.816 34.1297 150.816 34.1297C150.816 34.1297 151.273 33.8856 152.043 33.5601C154.269 32.604 156.037 32.3599 156.765 32.2786C156.89 32.2582 156.994 32.2379 157.119 32.2379C158.387 32.0751 159.823 32.0344 161.32 32.1972C163.297 32.421 165.418 32.9905 167.582 34.1297C167.582 34.1297 165.938 32.604 162.402 31.5666L162.693 31.2411C162.693 31.2411 165.543 31.1801 168.518 33.3567C168.518 33.3567 171.513 38.6253 171.513 45.1145C171.513 45.0942 169.766 48.0235 165.169 48.1659Z" fill="white"/>
<defs>
<linearGradient id="paint0_linear" x1="100" y1="0" x2="100" y2="82" gradientUnits="userSpaceOnUse">
<stop stop-color="#7289DA"/>
<stop offset="1" stop-color="#4F66B6"/>
</linearGradient>
</defs>
</svg>
