<svg width="270" height="48" viewBox="0 0 270 48" fill="none" xmlns="http://www.w3.org/2000/svg">
<rect width="48" height="48" rx="24" fill="url(#paint0_linear)"/>
<g clip-path="url(#clip0)">
<path d="M34.5707 16.7347C34.8976 17.0617 35.4277 17.0617 35.7547 16.7347C36.0816 16.4078 36.0816 15.8777 35.7547 15.5507L32.4492 12.2452C32.1223 11.9183 31.5921 11.9183 31.2652 12.2452C30.9382 12.5722 30.9382 13.1022 31.2652 13.4292L32.326 14.49L30.6293 16.1866L27.3155 12.8728C26.9886 12.5459 26.4585 12.5459 26.1315 12.8728C25.8046 13.1998 25.8046 13.7298 26.1315 14.0568L26.9832 14.9085L25.1179 16.7738L27.4191 19.0749C27.746 19.4019 27.746 19.9319 27.4191 20.2589C27.0921 20.5858 26.562 20.5859 26.2351 20.2589L23.9339 17.9577L22.6393 19.2524L24.9404 21.5535C25.2674 21.8805 25.2674 22.4105 24.9404 22.7375C24.6135 23.0644 24.0834 23.0645 23.7565 22.7375L21.4553 20.4363L18.9981 22.8936C18.6712 23.2206 18.6712 23.7506 18.9981 24.0776L23.9225 29.0019C24.2492 29.3288 24.7797 29.3289 25.1065 29.0019L33.0915 21.0169L33.9432 21.8686C34.2701 22.1956 34.8002 22.1956 35.1272 21.8686C35.4541 21.5417 35.4541 21.0116 35.1272 20.6846L31.8133 17.3706L33.5099 15.674L34.5707 16.7347Z" fill="white"/>
<path opacity="0.7" d="M17.5201 25.9905C17.1931 26.3174 17.1931 26.8475 17.5201 27.1744L18.5808 28.2352L12.2452 34.5708C11.9183 34.8977 11.9183 35.4278 12.2452 35.7548C12.5721 36.0817 13.1022 36.0817 13.4292 35.7548L19.7648 29.4192L20.8255 30.48C21.1522 30.8068 21.6827 30.8069 22.0095 30.48L22.5211 29.9684L18.0316 25.4789L17.5201 25.9905Z" fill="white"/>
</g>
<path d="M60.275 13.5H65.105V38H60.275V13.5ZM79.1602 20.01C81.0736 20.01 82.6486 20.6517 83.8852 21.935C85.1452 23.2183 85.7752 24.9917 85.7752 27.255V38H81.2602V27.815C81.2602 26.6483 80.9452 25.7617 80.3152 25.155C79.6852 24.525 78.8452 24.21 77.7952 24.21C76.6286 24.21 75.6952 24.5717 74.9952 25.295C74.2952 26.0183 73.9452 27.1033 73.9452 28.55V38H69.4302V20.5H73.9452V22.46C75.0419 20.8267 76.7802 20.01 79.1602 20.01ZM102.895 13.5H107.41V38H102.895V35.935C101.565 37.6383 99.6754 38.49 97.2254 38.49C94.8688 38.49 92.8504 37.6033 91.1704 35.83C89.5138 34.0333 88.6854 31.84 88.6854 29.25C88.6854 26.66 89.5138 24.4783 91.1704 22.705C92.8504 20.9083 94.8688 20.01 97.2254 20.01C99.6754 20.01 101.565 20.8617 102.895 22.565V13.5ZM94.5654 32.82C95.4988 33.73 96.6654 34.185 98.0654 34.185C99.4654 34.185 100.62 33.73 101.53 32.82C102.44 31.8867 102.895 30.6967 102.895 29.25C102.895 27.8033 102.44 26.625 101.53 25.715C100.62 24.7817 99.4654 24.315 98.0654 24.315C96.6654 24.315 95.4988 24.7817 94.5654 25.715C93.6554 26.625 93.2004 27.8033 93.2004 29.25C93.2004 30.6967 93.6554 31.8867 94.5654 32.82ZM113.78 18.4C113.033 18.4 112.38 18.1317 111.82 17.595C111.283 17.035 111.015 16.3817 111.015 15.635C111.015 14.8883 111.283 14.235 111.82 13.675C112.38 13.115 113.033 12.835 113.78 12.835C114.55 12.835 115.203 13.115 115.74 13.675C116.3 14.235 116.58 14.8883 116.58 15.635C116.58 16.3817 116.3 17.035 115.74 17.595C115.203 18.1317 114.55 18.4 113.78 18.4ZM111.54 38V20.5H116.055V38H111.54ZM133.487 20.5H138.002V38H133.487V35.935C132.134 37.6383 130.232 38.49 127.782 38.49C125.449 38.49 123.442 37.6033 121.762 35.83C120.105 34.0333 119.277 31.84 119.277 29.25C119.277 26.66 120.105 24.4783 121.762 22.705C123.442 20.9083 125.449 20.01 127.782 20.01C130.232 20.01 132.134 20.8617 133.487 22.565V20.5ZM125.157 32.82C126.067 33.73 127.222 34.185 128.622 34.185C130.022 34.185 131.177 33.73 132.087 32.82C133.02 31.8867 133.487 30.6967 133.487 29.25C133.487 27.8033 133.02 26.625 132.087 25.715C131.177 24.7817 130.022 24.315 128.622 24.315C127.222 24.315 126.067 24.7817 125.157 25.715C124.247 26.625 123.792 27.8033 123.792 29.25C123.792 30.6967 124.247 31.8867 125.157 32.82Z" fill="#000080"/>
<path d="M149.33 38L141.105 13.5H146.355L152.34 32.33L158.29 13.5H163.575L155.315 38H149.33ZM176.941 20.5H181.456V38H176.941V35.935C175.588 37.6383 173.686 38.49 171.236 38.49C168.903 38.49 166.896 37.6033 165.216 35.83C163.56 34.0333 162.731 31.84 162.731 29.25C162.731 26.66 163.56 24.4783 165.216 22.705C166.896 20.9083 168.903 20.01 171.236 20.01C173.686 20.01 175.588 20.8617 176.941 22.565V20.5ZM168.611 32.82C169.521 33.73 170.676 34.185 172.076 34.185C173.476 34.185 174.631 33.73 175.541 32.82C176.475 31.8867 176.941 30.6967 176.941 29.25C176.941 27.8033 176.475 26.625 175.541 25.715C174.631 24.7817 173.476 24.315 172.076 24.315C170.676 24.315 169.521 24.7817 168.611 25.715C167.701 26.625 167.246 27.8033 167.246 29.25C167.246 30.6967 167.701 31.8867 168.611 32.82ZM193.88 38.49C191.244 38.49 189.039 37.6033 187.265 35.83C185.515 34.0567 184.64 31.8633 184.64 29.25C184.64 26.6367 185.515 24.4433 187.265 22.67C189.039 20.8967 191.244 20.01 193.88 20.01C195.584 20.01 197.135 20.4183 198.535 21.235C199.935 22.0517 200.997 23.1483 201.72 24.525L197.835 26.8C197.485 26.0767 196.949 25.505 196.225 25.085C195.525 24.665 194.732 24.455 193.845 24.455C192.492 24.455 191.372 24.91 190.485 25.82C189.599 26.7067 189.155 27.85 189.155 29.25C189.155 30.6267 189.599 31.77 190.485 32.68C191.372 33.5667 192.492 34.01 193.845 34.01C194.755 34.01 195.56 33.8117 196.26 33.415C196.984 32.995 197.52 32.4233 197.87 31.7L201.79 33.94C201.02 35.3167 199.935 36.425 198.535 37.265C197.135 38.0817 195.584 38.49 193.88 38.49ZM212.235 38.49C209.598 38.49 207.393 37.6033 205.62 35.83C203.87 34.0567 202.995 31.8633 202.995 29.25C202.995 26.6367 203.87 24.4433 205.62 22.67C207.393 20.8967 209.598 20.01 212.235 20.01C213.938 20.01 215.49 20.4183 216.89 21.235C218.29 22.0517 219.352 23.1483 220.075 24.525L216.19 26.8C215.84 26.0767 215.303 25.505 214.58 25.085C213.88 24.665 213.087 24.455 212.2 24.455C210.847 24.455 209.727 24.91 208.84 25.82C207.953 26.7067 207.51 27.85 207.51 29.25C207.51 30.6267 207.953 31.77 208.84 32.68C209.727 33.5667 210.847 34.01 212.2 34.01C213.11 34.01 213.915 33.8117 214.615 33.415C215.338 32.995 215.875 32.4233 216.225 31.7L220.145 33.94C219.375 35.3167 218.29 36.425 216.89 37.265C215.49 38.0817 213.938 38.49 212.235 38.49ZM224.773 18.4C224.026 18.4 223.373 18.1317 222.813 17.595C222.276 17.035 222.008 16.3817 222.008 15.635C222.008 14.8883 222.276 14.235 222.813 13.675C223.373 13.115 224.026 12.835 224.773 12.835C225.543 12.835 226.196 13.115 226.733 13.675C227.293 14.235 227.573 14.8883 227.573 15.635C227.573 16.3817 227.293 17.035 226.733 17.595C226.196 18.1317 225.543 18.4 224.773 18.4ZM222.533 38V20.5H227.048V38H222.533ZM240.91 20.01C242.824 20.01 244.399 20.6517 245.635 21.935C246.895 23.2183 247.525 24.9917 247.525 27.255V38H243.01V27.815C243.01 26.6483 242.695 25.7617 242.065 25.155C241.435 24.525 240.595 24.21 239.545 24.21C238.379 24.21 237.445 24.5717 236.745 25.295C236.045 26.0183 235.695 27.1033 235.695 28.55V38H231.18V20.5H235.695V22.46C236.792 20.8267 238.53 20.01 240.91 20.01ZM255.195 31.105C255.802 33.2983 257.447 34.395 260.13 34.395C261.857 34.395 263.164 33.8117 264.05 32.645L267.69 34.745C265.964 37.2417 263.42 38.49 260.06 38.49C257.167 38.49 254.845 37.615 253.095 35.865C251.345 34.115 250.47 31.91 250.47 29.25C250.47 26.6133 251.334 24.42 253.06 22.67C254.787 20.8967 257.004 20.01 259.71 20.01C262.277 20.01 264.389 20.8967 266.045 22.67C267.725 24.4433 268.565 26.6367 268.565 29.25C268.565 29.8333 268.507 30.4517 268.39 31.105H255.195ZM255.125 27.605H264.05C263.794 26.415 263.257 25.5283 262.44 24.945C261.647 24.3617 260.737 24.07 259.71 24.07C258.497 24.07 257.494 24.385 256.7 25.015C255.907 25.6217 255.382 26.485 255.125 27.605Z" fill="#000080" fill-opacity="0.7"/>
<defs>
<linearGradient id="paint0_linear" x1="24" y1="0" x2="24" y2="48" gradientUnits="userSpaceOnUse">
<stop stop-color="#7373EC"/>
<stop offset="1" stop-color="#000080"/>
</linearGradient>
<clipPath id="clip0">
<rect width="24" height="24" fill="white" transform="translate(12 12)"/>
</clipPath>
</defs>
</svg>
