<svg width="272" height="46" viewBox="0 0 272 46" fill="none" xmlns="http://www.w3.org/2000/svg">
<rect width="46" height="46" rx="14" fill="url(#paint0_linear)"/>
<g clip-path="url(#clip0)">
<path d="M34.7378 14.886C35.0961 15.2443 35.6772 15.2444 36.0356 14.886C36.394 14.5276 36.394 13.9465 36.0356 13.5882L32.4123 9.96486C32.054 9.60648 31.4729 9.60648 31.1145 9.96486C30.7561 10.3232 30.7561 10.9043 31.1145 11.2627L32.2773 12.4254L30.4175 14.2852L26.7851 10.6528C26.4268 10.2944 25.8457 10.2944 25.4873 10.6528C25.129 11.0112 25.129 11.5922 25.4873 11.9506L26.4209 12.8841L24.3763 14.9288L26.8986 17.4511C27.257 17.8095 27.257 18.3905 26.8986 18.7489C26.5403 19.1073 25.9592 19.1073 25.6008 18.7489L23.0785 16.2265L21.6594 17.6456L24.1817 20.168C24.5401 20.5264 24.5401 21.1074 24.1817 21.4658C23.8234 21.8242 23.2423 21.8242 22.884 21.4658L20.3616 18.9434L17.6682 21.6369C17.3098 21.9953 17.3098 22.5763 17.6682 22.9347L23.066 28.3325C23.4241 28.6907 24.0055 28.6908 24.3637 28.3325L33.1164 19.5798L34.05 20.5134C34.4083 20.8718 34.9894 20.8718 35.3478 20.5134C35.7061 20.155 35.7061 19.574 35.3478 19.2156L31.7153 15.583L33.575 13.7232L34.7378 14.886Z" fill="white"/>
<path opacity="0.7" d="M16.0478 25.0315C15.6894 25.3898 15.6894 25.9709 16.0478 26.3293L17.2105 27.492L10.2659 34.4367C9.90747 34.795 9.90747 35.3761 10.2659 35.7345C10.6242 36.0928 11.2053 36.0928 11.5636 35.7345L18.5083 28.7899L19.671 29.9526C20.0291 30.3109 20.6105 30.311 20.9688 29.9526L21.5296 29.3919L16.6085 24.4708L16.0478 25.0315Z" fill="white"/>
</g>
<path d="M62.275 12.5H67.105V37H62.275V12.5ZM81.1602 19.01C83.0736 19.01 84.6486 19.6517 85.8852 20.935C87.1452 22.2183 87.7752 23.9917 87.7752 26.255V37H83.2602V26.815C83.2602 25.6483 82.9452 24.7617 82.3152 24.155C81.6852 23.525 80.8452 23.21 79.7952 23.21C78.6286 23.21 77.6952 23.5717 76.9952 24.295C76.2952 25.0183 75.9452 26.1033 75.9452 27.55V37H71.4302V19.5H75.9452V21.46C77.0419 19.8267 78.7802 19.01 81.1602 19.01ZM104.895 12.5H109.41V37H104.895V34.935C103.565 36.6383 101.675 37.49 99.2254 37.49C96.8688 37.49 94.8504 36.6033 93.1704 34.83C91.5138 33.0333 90.6854 30.84 90.6854 28.25C90.6854 25.66 91.5138 23.4783 93.1704 21.705C94.8504 19.9083 96.8688 19.01 99.2254 19.01C101.675 19.01 103.565 19.8617 104.895 21.565V12.5ZM96.5654 31.82C97.4988 32.73 98.6654 33.185 100.065 33.185C101.465 33.185 102.62 32.73 103.53 31.82C104.44 30.8867 104.895 29.6967 104.895 28.25C104.895 26.8033 104.44 25.625 103.53 24.715C102.62 23.7817 101.465 23.315 100.065 23.315C98.6654 23.315 97.4988 23.7817 96.5654 24.715C95.6554 25.625 95.2004 26.8033 95.2004 28.25C95.2004 29.6967 95.6554 30.8867 96.5654 31.82ZM115.78 17.4C115.033 17.4 114.38 17.1317 113.82 16.595C113.283 16.035 113.015 15.3817 113.015 14.635C113.015 13.8883 113.283 13.235 113.82 12.675C114.38 12.115 115.033 11.835 115.78 11.835C116.55 11.835 117.203 12.115 117.74 12.675C118.3 13.235 118.58 13.8883 118.58 14.635C118.58 15.3817 118.3 16.035 117.74 16.595C117.203 17.1317 116.55 17.4 115.78 17.4ZM113.54 37V19.5H118.055V37H113.54ZM135.487 19.5H140.002V37H135.487V34.935C134.134 36.6383 132.232 37.49 129.782 37.49C127.449 37.49 125.442 36.6033 123.762 34.83C122.105 33.0333 121.277 30.84 121.277 28.25C121.277 25.66 122.105 23.4783 123.762 21.705C125.442 19.9083 127.449 19.01 129.782 19.01C132.232 19.01 134.134 19.8617 135.487 21.565V19.5ZM127.157 31.82C128.067 32.73 129.222 33.185 130.622 33.185C132.022 33.185 133.177 32.73 134.087 31.82C135.02 30.8867 135.487 29.6967 135.487 28.25C135.487 26.8033 135.02 25.625 134.087 24.715C133.177 23.7817 132.022 23.315 130.622 23.315C129.222 23.315 128.067 23.7817 127.157 24.715C126.247 25.625 125.792 26.8033 125.792 28.25C125.792 29.6967 126.247 30.8867 127.157 31.82Z" fill="#000080"/>
<path d="M151.33 37L143.105 12.5H148.355L154.34 31.33L160.29 12.5H165.575L157.315 37H151.33ZM178.941 19.5H183.456V37H178.941V34.935C177.588 36.6383 175.686 37.49 173.236 37.49C170.903 37.49 168.896 36.6033 167.216 34.83C165.56 33.0333 164.731 30.84 164.731 28.25C164.731 25.66 165.56 23.4783 167.216 21.705C168.896 19.9083 170.903 19.01 173.236 19.01C175.686 19.01 177.588 19.8617 178.941 21.565V19.5ZM170.611 31.82C171.521 32.73 172.676 33.185 174.076 33.185C175.476 33.185 176.631 32.73 177.541 31.82C178.475 30.8867 178.941 29.6967 178.941 28.25C178.941 26.8033 178.475 25.625 177.541 24.715C176.631 23.7817 175.476 23.315 174.076 23.315C172.676 23.315 171.521 23.7817 170.611 24.715C169.701 25.625 169.246 26.8033 169.246 28.25C169.246 29.6967 169.701 30.8867 170.611 31.82ZM195.88 37.49C193.244 37.49 191.039 36.6033 189.265 34.83C187.515 33.0567 186.64 30.8633 186.64 28.25C186.64 25.6367 187.515 23.4433 189.265 21.67C191.039 19.8967 193.244 19.01 195.88 19.01C197.584 19.01 199.135 19.4183 200.535 20.235C201.935 21.0517 202.997 22.1483 203.72 23.525L199.835 25.8C199.485 25.0767 198.949 24.505 198.225 24.085C197.525 23.665 196.732 23.455 195.845 23.455C194.492 23.455 193.372 23.91 192.485 24.82C191.599 25.7067 191.155 26.85 191.155 28.25C191.155 29.6267 191.599 30.77 192.485 31.68C193.372 32.5667 194.492 33.01 195.845 33.01C196.755 33.01 197.56 32.8117 198.26 32.415C198.984 31.995 199.52 31.4233 199.87 30.7L203.79 32.94C203.02 34.3167 201.935 35.425 200.535 36.265C199.135 37.0817 197.584 37.49 195.88 37.49ZM214.235 37.49C211.598 37.49 209.393 36.6033 207.62 34.83C205.87 33.0567 204.995 30.8633 204.995 28.25C204.995 25.6367 205.87 23.4433 207.62 21.67C209.393 19.8967 211.598 19.01 214.235 19.01C215.938 19.01 217.49 19.4183 218.89 20.235C220.29 21.0517 221.352 22.1483 222.075 23.525L218.19 25.8C217.84 25.0767 217.303 24.505 216.58 24.085C215.88 23.665 215.087 23.455 214.2 23.455C212.847 23.455 211.727 23.91 210.84 24.82C209.953 25.7067 209.51 26.85 209.51 28.25C209.51 29.6267 209.953 30.77 210.84 31.68C211.727 32.5667 212.847 33.01 214.2 33.01C215.11 33.01 215.915 32.8117 216.615 32.415C217.338 31.995 217.875 31.4233 218.225 30.7L222.145 32.94C221.375 34.3167 220.29 35.425 218.89 36.265C217.49 37.0817 215.938 37.49 214.235 37.49ZM226.773 17.4C226.026 17.4 225.373 17.1317 224.813 16.595C224.276 16.035 224.008 15.3817 224.008 14.635C224.008 13.8883 224.276 13.235 224.813 12.675C225.373 12.115 226.026 11.835 226.773 11.835C227.543 11.835 228.196 12.115 228.733 12.675C229.293 13.235 229.573 13.8883 229.573 14.635C229.573 15.3817 229.293 16.035 228.733 16.595C228.196 17.1317 227.543 17.4 226.773 17.4ZM224.533 37V19.5H229.048V37H224.533ZM242.91 19.01C244.824 19.01 246.399 19.6517 247.635 20.935C248.895 22.2183 249.525 23.9917 249.525 26.255V37H245.01V26.815C245.01 25.6483 244.695 24.7617 244.065 24.155C243.435 23.525 242.595 23.21 241.545 23.21C240.379 23.21 239.445 23.5717 238.745 24.295C238.045 25.0183 237.695 26.1033 237.695 27.55V37H233.18V19.5H237.695V21.46C238.792 19.8267 240.53 19.01 242.91 19.01ZM257.195 30.105C257.802 32.2983 259.447 33.395 262.13 33.395C263.857 33.395 265.164 32.8117 266.05 31.645L269.69 33.745C267.964 36.2417 265.42 37.49 262.06 37.49C259.167 37.49 256.845 36.615 255.095 34.865C253.345 33.115 252.47 30.91 252.47 28.25C252.47 25.6133 253.334 23.42 255.06 21.67C256.787 19.8967 259.004 19.01 261.71 19.01C264.277 19.01 266.389 19.8967 268.045 21.67C269.725 23.4433 270.565 25.6367 270.565 28.25C270.565 28.8333 270.507 29.4517 270.39 30.105H257.195ZM257.125 26.605H266.05C265.794 25.415 265.257 24.5283 264.44 23.945C263.647 23.3617 262.737 23.07 261.71 23.07C260.497 23.07 259.494 23.385 258.7 24.015C257.907 24.6217 257.382 25.485 257.125 26.605Z" fill="#000080" fill-opacity="0.7"/>
<defs>
<linearGradient id="paint0_linear" x1="23" y1="0" x2="23" y2="46" gradientUnits="userSpaceOnUse">
<stop stop-color="#7373EC"/>
<stop offset="1" stop-color="#000080"/>
</linearGradient>
<clipPath id="clip0">
<rect width="26.3072" height="26.3072" fill="white" transform="translate(9.99707 9.69608)"/>
</clipPath>
</defs>
</svg>
