<svg width="36" height="30" viewBox="0 0 36 30" fill="none" xmlns="http://www.w3.org/2000/svg">
<g clip-path="url(#clip0)">
<path d="M36 4.00916C34.6756 4.58752 33.2519 4.97823 31.7581 5.154C33.2829 4.25422 34.4542 2.82941 35.0055 1.13156C33.5783 1.96489 31.9977 2.56982 30.3152 2.89586C28.9681 1.48275 27.0486 0.599976 24.9242 0.599976C20.8454 0.599976 17.5383 3.85518 17.5383 7.87036C17.5383 8.44021 17.6036 8.99519 17.7296 9.5273C11.5912 9.22412 6.14911 6.3295 2.50626 1.93069C1.8705 3.00448 1.50618 4.25333 1.50618 5.58582C1.50618 8.10834 2.8101 10.3337 4.79191 11.6375C3.58123 11.5997 2.44236 11.2726 1.4466 10.7281C1.44576 10.7584 1.44576 10.7889 1.44576 10.8196C1.44576 14.3421 3.99169 17.2805 7.37047 17.9489C6.75073 18.1151 6.09823 18.2039 5.42467 18.2039C4.94875 18.2039 4.48615 18.1582 4.03507 18.0735C4.97503 20.9619 7.70257 23.0639 10.9347 23.1224C8.40691 25.0726 5.22235 26.235 1.76184 26.235C1.16568 26.235 0.577802 26.2004 0 26.1333C3.26863 28.1963 7.15087 29.4 11.3218 29.4C24.907 29.4 32.3362 18.3214 32.3362 8.71327C32.3362 8.39804 32.329 8.08459 32.3147 7.77255C33.7576 6.74767 35.0097 5.46728 35.9999 4.00916H36Z" fill="#1D9BF0"/>
</g>
<defs>
<clipPath id="clip0">
<rect width="36" height="28.8" fill="white" transform="translate(0 0.599976)"/>
</clipPath>
</defs>
</svg>
