<svg width="45" height="36" viewBox="0 0 45 36" fill="none" xmlns="http://www.w3.org/2000/svg">
<path d="M45 4.26148C43.3444 4.98443 41.5649 5.47281 39.6976 5.69253C41.6036 4.5678 43.0677 2.7868 43.7569 0.664476C41.9728 1.70615 39.9971 2.46231 37.894 2.86985C36.2101 1.10347 33.8107 0 31.1553 0C26.0568 0 21.9228 4.069 21.9228 9.08799C21.9228 9.8003 22.0045 10.494 22.162 11.1592C14.4891 10.7802 7.68639 7.1619 3.13283 1.66339C2.33813 3.00563 1.88273 4.5667 1.88273 6.23231C1.88273 9.38545 3.51263 12.1671 5.98988 13.7969C4.47653 13.7497 3.05295 13.3408 1.80825 12.6602C1.8072 12.6981 1.8072 12.7362 1.8072 12.7745C1.8072 17.1777 4.98961 20.8507 9.21309 21.6862C8.43842 21.8939 7.62279 22.0049 6.78083 22.0049C6.18593 22.0049 5.60769 21.9477 5.04384 21.8419C6.21879 25.4524 9.62822 28.0799 13.6683 28.153C10.5086 30.5908 6.52794 32.0437 2.20231 32.0437C1.4571 32.0437 0.722252 32.0005 0 31.9166C4.08578 34.4954 8.93859 36 14.1523 36C31.1338 36 40.4202 22.1517 40.4202 10.1416C40.4202 9.74758 40.4112 9.35577 40.3934 8.96572C42.197 7.68462 43.7621 6.08413 44.9999 4.26148H45Z" fill="black"/>
</svg>
